<?xml version="1.0" encoding="UTF-8"?>
<svg version="1.1" xmlns="http://www.w3.org/2000/svg" width="952" height="1528">
<path d="M0 0 C-0.04125 1.051875 -0.0825 2.10375 -0.125 3.1875 C-0.00730815 6.77710155 0.61678142 8.77248998 2 12 C1.67 12.66 1.34 13.32 1 14 C1.66 14 2.32 14 3 14 C3.17015625 14.61746094 3.3403125 15.23492187 3.515625 15.87109375 C5.00059041 21.06057393 6.76775269 25.89184993 9.02734375 30.7890625 C11.31986842 36.00018284 12.85133104 41.47971433 14.4375 46.9375 C15.72866016 51.31385339 17.35787226 55.48043959 19.09765625 59.6953125 C20 62 20 62 21 65.5625 C22.05810794 69.19974604 23.4878 72.46653359 25.09765625 75.88671875 C25.96653126 77.9216165 26.50486177 79.84855866 27 82 C27.33 82.99 27.66 83.98 28 85 C27.67 85.66 27.34 86.32 27 87 C27.66 87 28.32 87 29 87 C29.25523437 87.90878906 29.25523437 87.90878906 29.515625 88.8359375 C31.08726251 94.26979059 32.94015039 99.46844925 35.09765625 104.6953125 C36 107 36 107 37 110.5625 C38.05810794 114.19974604 39.4878 117.46653359 41.09765625 120.88671875 C41.96645146 122.92142961 42.50714992 124.84818136 43 127 C43.65358081 129.00431449 44.32136945 131.0040278 45 133 C45.30035156 133.91007813 45.60070312 134.82015625 45.91015625 135.7578125 C47.0633716 139.18852484 48.27512321 142.59424503 49.5 146 C50.68855508 149.30476289 51.87011364 152.60562732 52.96875 155.94140625 C54.45126108 160.33839934 56.12434688 164.65950142 57.7890625 168.99023438 C59.01635188 172.22271625 60.11385819 175.39975946 61.0625 178.73046875 C61.85021089 181.47761049 62.74820484 183.82251143 64 186.375 C65.76013305 190.1886216 66.77103741 193.82958713 67.5078125 197.95703125 C68.04742262 200.19684151 68.91424062 201.97408116 70 204 C71.1875 206.625 71.1875 206.625 72 209 C71.67 209.66 71.34 210.32 71 211 C71.66 211 72.32 211 73 211 C73.17015625 211.68964844 73.3403125 212.37929688 73.515625 213.08984375 C74.93701181 218.60149794 76.62014528 223.67116651 79.02734375 228.82421875 C81.35442437 234.02977661 82.86512135 239.53048931 84.4375 245 C85.66856541 249.18171425 87.26055012 253.05898513 89.1328125 256.9921875 C89.99778967 258.99488239 90.51584057 260.87620822 91 263 C92.52942967 268.72805508 94.27349081 274.00209567 97.1328125 279.2109375 C98.06966298 281.14371913 98.49937684 282.90980694 99 285 C99.79821353 287.46417138 100.60906049 289.92108004 101.4375 292.375 C101.65470703 293.02210938 101.87191406 293.66921875 102.09570312 294.3359375 C102.72958408 296.22425554 103.36477459 298.11213381 104 300 C104.51240234 301.58748047 104.51240234 301.58748047 105.03515625 303.20703125 C105.88920032 305.67926408 106.86584243 307.9600091 108 310.3125 C109.75056951 314.14954166 110.69945146 317.80684313 111.49609375 321.93359375 C111.98494128 324.27129227 111.98494128 324.27129227 113.625 327.25 C115.06819808 330.13639615 115.28010342 331.82549455 115 335 C115.66 335 116.32 335 117 335 C117.27199219 335.98871094 117.54398437 336.97742188 117.82421875 337.99609375 C118.99178867 342.07900067 120.38057733 346.0659535 121.8125 350.0625 C122.07458252 350.79911865 122.33666504 351.5357373 122.60668945 352.29467773 C123.14340852 353.80226268 123.68108229 355.30950809 124.21972656 356.81640625 C124.94850082 358.85587965 125.6740933 360.89644978 126.3984375 362.9375 C128.12904217 367.80417009 129.86082545 372.66844581 131.6875 377.5 C133.80275475 383.14067934 135.55983978 388.84465835 137.21875 394.6328125 C137.93418974 397.0234909 137.93418974 397.0234909 139.15625 399.1796875 C139.57390625 400.08074219 139.57390625 400.08074219 140 401 C139.67 401.66 139.34 402.32 139 403 C139.66 403 140.32 403 141 403 C141.17015625 403.60585938 141.3403125 404.21171875 141.515625 404.8359375 C143.07282393 410.21986998 144.89782425 415.38039932 147.02734375 420.5625 C148.52633393 424.31900551 149.76018685 428.15183679 151 432 C152.44733051 436.42534565 153.91475861 440.83216346 155.5625 445.1875 C159 454.28782895 159 454.28782895 159 459 C159.66 459 160.32 459 161 459 C161.4021875 460.4540625 161.4021875 460.4540625 161.8125 461.9375 C163.79850738 468.83991727 166.07461911 475.44948019 169.1328125 481.95703125 C169.99027588 483.97709138 170.48158478 485.86957835 171 488 C171.79821353 490.46417138 172.60906049 492.92108004 173.4375 495.375 C173.65470703 496.02210938 173.87191406 496.66921875 174.09570312 497.3359375 C174.72958408 499.22425554 175.36477459 501.11213381 176 503 C176.33902344 504.03640625 176.67804688 505.0728125 177.02734375 506.140625 C177.97515421 508.92695937 179.01939847 511.64784957 180.125 514.375 C180.47820312 515.24898437 180.83140625 516.12296875 181.1953125 517.0234375 C181.46085937 517.67570313 181.72640625 518.32796875 182 519 C182.33 519 182.66 519 183 519 C182.34 516.69 181.68 514.38 181 512 C181.66 511.67 182.32 511.34 183 511 C182.37240135 508.07120629 181.41377341 505.63904371 180 503 C180 503.66 180 504.32 180 505 C179.01 504.67 178.02 504.34 177 504 C177 503.01 177 502.02 177 501 C178.32 500.67 179.64 500.34 181 500 C180.67 499.34 180.34 498.68 180 498 C180.99 498 181.98 498 183 498 C182.34 497.67 181.68 497.34 181 497 C180.92572162 493.65747276 180.93453047 491.1964086 182 488 C184.375 486.6875 184.375 486.6875 187 486 C187.99 486.66 188.98 487.32 190 488 C190.66 486.68 191.32 485.36 192 484 C192.33 484.33 192.66 484.66 193 485 C194.08730425 478.82591216 194.15249157 472.78777496 194.15821838 466.52833557 C194.16562535 464.80427212 194.16562535 464.80427212 194.17318195 463.0453791 C194.18852856 459.19765325 194.19690993 455.34994406 194.20532227 451.50219727 C194.21435986 448.74257544 194.22487029 445.98295968 194.23532104 443.2233429 C194.25704391 437.28391269 194.27520364 431.34448021 194.29092598 425.4050312 C194.31366286 416.81764302 194.34180034 408.23027916 194.37124526 399.64291167 C194.41887443 385.7096244 194.46215124 371.77632716 194.50268555 357.84301758 C194.54206429 344.31013209 194.5834962 330.77725544 194.62768555 317.24438477 C194.63177196 315.99260522 194.63177196 315.99260522 194.63594092 314.7155372 C194.64962079 310.52889158 194.66334098 306.34224609 194.67708123 302.15560067 C194.79097254 267.43708547 194.89779809 232.7185515 195 198 C195.33 198 195.66 198 196 198 C196.33 141.24 196.66 84.48 197 26 C197.33 26 197.66 26 198 26 C198 25.40985107 198 24.81970215 198 24.21166992 C198 17.14111328 198 10.07055664 198 3 C281.82 2.67 365.64 2.34 452 2 C452 18.5 452 35 452 52 C452.33 52 452.66 52 453 52 C453 448.66 453 845.32 453 1254 C452.67 1254 452.34 1254 452 1254 C452.01047363 1254.82725586 452.02094727 1255.65451172 452.03173828 1256.50683594 C452.07330912 1260.2545264 452.09932992 1264.00216832 452.125 1267.75 C452.14175781 1269.05195312 452.15851562 1270.35390625 452.17578125 1271.6953125 C452.18544922 1273.57089844 452.18544922 1273.57089844 452.1953125 1275.484375 C452.21102295 1277.21252441 452.21102295 1277.21252441 452.22705078 1278.97558594 C452.00758762 1281.89892966 451.52728122 1283.53732509 450 1286 C448.35 1286 446.7 1286 445 1286 C444.67 1285.34 444.34 1284.68 444 1284 C441.97536745 1283.34786708 441.97536745 1283.34786708 440 1283 C439.67 1283.66 439.34 1284.32 439 1285 C436.69 1284.67 434.38 1284.34 432 1284 C432 1283.67 432 1283.34 432 1283 C431.10796875 1283.02320313 430.2159375 1283.04640625 429.296875 1283.0703125 C427.54117187 1283.09738281 427.54117187 1283.09738281 425.75 1283.125 C424.58984375 1283.14820313 423.4296875 1283.17140625 422.234375 1283.1953125 C419.0698877 1283.00422027 417.71133311 1282.44945481 415 1281 C412.73821431 1280.79663144 412.73821431 1280.79663144 410.4375 1280.9375 C407.47171272 1281.05253054 405.881863 1280.960621 403 1280 C401.00038436 1279.96079185 398.99950636 1279.95556653 397 1280 C397 1279.67 397 1279.34 397 1279 C396.3709375 1279.09539062 395.741875 1279.19078125 395.09375 1279.2890625 C387.85851449 1280.22615626 382.90747983 1279.30249328 376 1277 C373.70546505 1277.09406754 373.70546505 1277.09406754 371.3125 1277.4375 C370.50425781 1277.53933594 369.69601562 1277.64117188 368.86328125 1277.74609375 C368.24839844 1277.82988281 367.63351562 1277.91367188 367 1278 C366.67 1277.34 366.34 1276.68 366 1276 C363.69 1276 361.38 1276 359 1276 C359 1275.67 359 1275.34 359 1275 C358.154375 1275.09539062 357.30875 1275.19078125 356.4375 1275.2890625 C349.7385915 1275.94372856 344.40482485 1276.13494162 338 1274 C338 1273.67 338 1273.34 338 1273 C334.37 1273.33 330.74 1273.66 327 1274 C326.67 1273.34 326.34 1272.68 326 1272 C322.37 1272 318.74 1272 315 1272 C315 1271.67 315 1271.34 315 1271 C310.50082124 1270.83877041 310.50082124 1270.83877041 306.078125 1271.48828125 C303.67443948 1272.08016622 301.47414874 1272.20474118 299 1272.25 C298.154375 1272.27578125 297.30875 1272.3015625 296.4375 1272.328125 C294 1272 294 1272 292.234375 1270.46484375 C288.7140995 1268.15697083 285.31999224 1268.93114915 281.25 1269.3125 C280.45722656 1269.37373047 279.66445313 1269.43496094 278.84765625 1269.49804688 C276.89724131 1269.65079021 274.94840445 1269.82345244 273 1270 C273.66 1269.34 274.32 1268.68 275 1268 C270.71 1268 266.42 1268 262 1268 C262 1267.67 262 1267.34 262 1267 C259.95840905 1266.9727384 257.91671037 1266.95348655 255.875 1266.9375 C254.73804688 1266.92589844 253.60109375 1266.91429687 252.4296875 1266.90234375 C249.17478159 1266.9950233 246.20496689 1267.46172992 243 1268 C240.46073692 1268.13840847 237.91784861 1268.21942467 235.375 1268.25 C234.08335937 1268.27578125 232.79171875 1268.3015625 231.4609375 1268.328125 C227.76859375 1267.97806081 226.73821958 1267.31602713 224 1265 C218.54869968 1264.63657998 213.39693658 1265.22900906 208 1266 C207.67 1265.01 207.34 1264.02 207 1263 C206.41992188 1263.0721875 205.83984375 1263.144375 205.2421875 1263.21875 C196.12578616 1264.30188679 196.12578616 1264.30188679 192 1264 C191.34 1263.34 190.68 1262.68 190 1262 C189.01 1262 188.02 1262 187 1262 C187 1259.69 187 1257.38 187 1255 C186.34 1255 185.68 1255 185 1255 C184.855625 1254.05125 184.71125 1253.1025 184.5625 1252.125 C184.17064601 1249.1065506 184.17064601 1249.1065506 183 1247 C182.67 1246.01 182.34 1245.02 182 1244 C181.34 1243.01 180.68 1242.02 180 1241 C179.835 1239.80375 179.67 1238.6075 179.5 1237.375 C179.335 1236.26125 179.17 1235.1475 179 1234 C178.34 1233.67 177.68 1233.34 177 1233 C177 1231.35 177 1229.7 177 1228 C176.34 1227.67 175.68 1227.34 175 1227 C175 1225.35 175 1223.7 175 1222 C174.34 1221.67 173.68 1221.34 173 1221 C173 1219.35 173 1217.7 173 1216 C172.34 1216 171.68 1216 171 1216 C171.061875 1215.21625 171.12375 1214.4325 171.1875 1213.625 C171.0946875 1212.325625 171.0946875 1212.325625 171 1211 C170.01 1210.34 169.02 1209.68 168 1209 C167.55859375 1206.87109375 167.55859375 1206.87109375 167.4375 1204.4375 C167.35309865 1202.06261153 167.35309865 1202.06261153 167 1200 C166.34 1199.67 165.68 1199.34 165 1199 C165 1197.35 165 1195.7 165 1194 C164.34 1193.67 163.68 1193.34 163 1193 C162.61866701 1191.0085944 162.28674418 1189.00720923 162 1187 C161.67 1186.34 161.34 1185.68 161 1185 C160.67 1184.01 160.34 1183.02 160 1182 C159.34 1181.67 158.68 1181.34 158 1181 C158.33 1179.68 158.66 1178.36 159 1177 C158.01 1176.34 157.02 1175.68 156 1175 C156 1174.34 156 1173.68 156 1173 C155.50161248 1170.22326952 154.89404661 1167.68213983 154 1165 C153.67 1164.01 153.34 1163.02 153 1162 C152.67 1161.34 152.34 1160.68 152 1160 C151.66666667 1158.66666667 151.33333333 1157.33333333 151 1156 C150.16666667 1153.83333333 150.16666667 1153.83333333 148 1153 C148.3403125 1151.8553125 148.3403125 1151.8553125 148.6875 1150.6875 C148.790625 1149.800625 148.89375 1148.91375 149 1148 C147.60411246 1146.35405861 147.60411246 1146.35405861 146 1145 C146 1144.01 146 1143.02 146 1142 C145.34 1141.67 144.68 1141.34 144 1141 C143.60689586 1138.67711188 143.49250305 1136.38154824 143.34375 1134.03125 C143.2303125 1133.3609375 143.116875 1132.690625 143 1132 C142.34 1131.67 141.68 1131.34 141 1131 C141 1129.35 141 1127.7 141 1126 C140.34 1125.67 139.68 1125.34 139 1125 C139 1123.35 139 1121.7 139 1120 C138.01 1119.67 137.02 1119.34 136 1119 C136.33 1117.35 136.66 1115.7 137 1114 C136.01 1113.67 135.02 1113.34 134 1113 C134.33 1111.68 134.66 1110.36 135 1109 C134.01 1108.34 133.02 1107.68 132 1107 C132 1106.34 132 1105.68 132 1105 C131.83046255 1100.32794379 131.83046255 1100.32794379 129.5 1096.5703125 C127.53125919 1094.50928697 127.51582196 1093.11834303 127.3125 1090.3125 C127.24675781 1089.50425781 127.18101562 1088.69601562 127.11328125 1087.86328125 C127.07589844 1087.24839844 127.03851563 1086.63351562 127 1086 C126.01 1085.67 125.02 1085.34 124 1085 C124.33 1083.68 124.66 1082.36 125 1081 C124.34 1081 123.68 1081 123 1081 C122.27470421 1078.4096579 121.88163857 1076.00238223 121.5625 1073.3125 C121.2840625 1071.6728125 121.2840625 1071.6728125 121 1070 C120.34 1069.67 119.68 1069.34 119 1069 C119.061875 1068.236875 119.12375 1067.47375 119.1875 1066.6875 C118.96466081 1063.49347163 118.26680076 1063.0779007 116 1061 C116 1060.01 116 1059.02 116 1058 C115.34 1057.67 114.68 1057.34 114 1057 C114.33 1055.35 114.66 1053.7 115 1052 C114.01 1051.67 113.02 1051.34 112 1051 C112 1049.35 112 1047.7 112 1046 C111.34 1045.67 110.68 1045.34 110 1045 C110 1043.68 110 1042.36 110 1041 C109.67 1040.01 109.34 1039.02 109 1038 C108 1035 107 1032 106 1029 C105.34 1028.34 104.68 1027.68 104 1027 C103.66330615 1024.95426522 103.55930828 1022.94399048 103.44140625 1020.875 C103.1294203 1018.59314755 103.1294203 1018.59314755 100 1017 C99.55859375 1014.87109375 99.55859375 1014.87109375 99.4375 1012.4375 C99.35309865 1010.06261153 99.35309865 1010.06261153 99 1008 C98.34 1007.67 97.68 1007.34 97 1007 C97 1005.35 97 1003.7 97 1002 C96.34 1001.67 95.68 1001.34 95 1001 C94.6451046 999.00371336 94.31421071 997.00309329 94 995 C93.00916033 992.76591887 93.00916033 992.76591887 92 991 C92 990.67 92 990.34 92 990 C91.34 989.67 90.68 989.34 90 989 C90.33 987.68 90.66 986.36 91 985 C90.34 984.67 89.68 984.34 89 984 C88.40234375 982.2578125 88.40234375 982.2578125 87.9375 980.125 C87.38999679 977.67254759 86.79762787 975.39288361 86 973 C84 967 84 967 83.5625 964.875 C83.376875 964.25625 83.19125 963.6375 83 963 C82.34 962.67 81.68 962.34 81 962 C81 960.02 81 958.04 81 956 C80.34 956 79.68 956 79 956 C79.061875 955.21625 79.12375 954.4325 79.1875 953.625 C79.125625 952.75875 79.06375 951.8925 79 951 C78.01 950.34 77.02 949.68 76 949 C75.55859375 946.87109375 75.55859375 946.87109375 75.4375 944.4375 C75.35309865 942.06261153 75.35309865 942.06261153 75 940 C74.34 939.67 73.68 939.34 73 939 C73 937.35 73 935.7 73 934 C72.34 933.67 71.68 933.34 71 933 C70.61866701 931.0085944 70.28674418 929.00720923 70 927 C69.67 926.34 69.34 925.68 69 925 C68.67 924.01 68.34 923.02 68 922 C67.34 921.67 66.68 921.34 66 921 C66.33 919.68 66.66 918.36 67 917 C66.34 916.67 65.68 916.34 65 916 C64.10689899 913.32069696 63.55238499 910.76192495 63 908 C62.67 907.01 62.34 906.02 62 905 C61.67 904.01 61.34 903.02 61 902 C60.67 901.34 60.34 900.68 60 900 C59.33333333 898 58.66666667 896 58 894 C57.34 893.67 56.68 893.34 56 893 C56.226875 892.236875 56.45375 891.47375 56.6875 890.6875 C56.790625 889.800625 56.89375 888.91375 57 888 C56.54625 887.54625 56.0925 887.0925 55.625 886.625 C53.15657989 884.15657989 53.43660944 881.36812997 53 878 C52.34 877.67 51.68 877.34 51 877 C51 875.35 51 873.7 51 872 C50.34 871.67 49.68 871.34 49 871 C49 869.35 49 867.7 49 866 C48.34 865.67 47.68 865.34 47 865 C47 863.35 47 861.7 47 860 C46.34 859.67 45.68 859.34 45 859 C45 857.35 45 855.7 45 854 C44.01 853.67 43.02 853.34 42 853 C42.33 851.68 42.66 850.36 43 849 C42.01 848.34 41.02 847.68 40 847 C40 846.34 40 845.68 40 845 C39.50161248 842.22326952 38.89404661 839.68213983 38 837 C37.67 836.01 37.34 835.02 37 834 C36.67 833.34 36.34 832.68 36 832 C35.66666667 830.66666667 35.33333333 829.33333333 35 828 C34.16666667 825.83333333 34.16666667 825.83333333 32 825 C32.226875 824.236875 32.45375 823.47375 32.6875 822.6875 C32.790625 821.800625 32.89375 820.91375 33 820 C31.60411246 818.35405861 31.60411246 818.35405861 30 817 C30 816.01 30 815.02 30 814 C29.34 813.67 28.68 813.34 28 813 C28 811.68 28 810.36 28 809 C27.67 808.01 27.34 807.02 27 806 C26.67 805.01 26.34 804.02 26 803 C25.67 804.65 25.34 806.3 25 808 C24.01 807.67 23.02 807.34 22 807 C21.34 807.33 20.68 807.66 20 808 C19.34227572 811.02934491 19.34227572 811.02934491 19 814 C18.01 813.67 17.02 813.34 16 813 C15.67 813.33 15.34 813.66 15 814 C15 814.66 15 815.32 15 816 C14.34 816 13.68 816 13 816 C12.67 815.01 12.34 814.02 12 813 C11.51660156 812.56816406 11.03320312 812.13632812 10.53515625 811.69140625 C8.36857835 809.30431151 8.09168136 807.07383234 7.4375 803.9375 C7.19257813 802.78765625 6.94765625 801.6378125 6.6953125 800.453125 C6.46585937 799.31359375 6.23640625 798.1740625 6 797 C5.79117187 795.98421875 5.58234375 794.9684375 5.3671875 793.921875 C4.89956113 791.61667457 4.44322708 789.30999526 4 787 C1.80835056 790.28747416 1.71320614 791.48494825 1.5859375 795.32421875 C1.54726563 796.35224609 1.50859375 797.38027344 1.46875 798.43945312 C1.42234375 800.04723633 1.42234375 800.04723633 1.375 801.6875 C1.33632813 802.77095703 1.29765625 803.85441406 1.2578125 804.97070312 C1.16349491 807.64696467 1.07789995 810.32321843 1 813 C0.67 813 0.34 813 0 813 C-0.12862974 857.98443978 -0.25612611 902.96888266 -0.38218227 947.95332973 C-0.39719567 953.31068339 -0.41221809 958.66803701 -0.42724609 964.02539062 C-0.43173202 965.62466391 -0.43173202 965.62466391 -0.43630856 967.25624575 C-0.48422933 984.3328509 -0.53287429 1001.40945391 -0.58180541 1018.48605619 C-0.63230772 1036.11686485 -0.68198895 1053.7476757 -0.73096704 1071.37848866 C-0.75837196 1081.23561267 -0.78611342 1091.09273545 -0.81480408 1100.9498558 C-0.95692248 1149.85116475 -1.03216899 1198.75185961 -1.001472 1247.65338242 C-0.99468476 1258.4734102 -0.99468476 1258.4734102 -3.6875 1262.5625 C-6.6240177 1264.38790289 -8.599552 1264.14784557 -12 1264 C-12.66 1264.66 -13.32 1265.32 -14 1266 C-15.83178711 1266.10351562 -15.83178711 1266.10351562 -18.02734375 1265.90625 C-19.21553711 1265.81537109 -19.21553711 1265.81537109 -20.42773438 1265.72265625 C-22.09703575 1265.57456259 -23.76630679 1265.42612668 -25.43554688 1265.27734375 C-26.22896484 1265.21675781 -27.02238281 1265.15617187 -27.83984375 1265.09375 C-28.56550537 1265.02865234 -29.29116699 1264.96355469 -30.03881836 1264.89648438 C-32.32774434 1264.85011041 -32.32774434 1264.85011041 -35 1267 C-37.09716797 1267.3347168 -37.09716797 1267.3347168 -39.4921875 1267.44921875 C-40.79736328 1267.51399414 -40.79736328 1267.51399414 -42.12890625 1267.58007812 C-43.03511719 1267.61552734 -43.94132813 1267.65097656 -44.875 1267.6875 C-45.77347656 1267.73455078 -46.67195312 1267.78160156 -47.59765625 1267.83007812 C-51.9166992 1268.02465835 -55.77826041 1268.08166942 -60 1267 C-61.6662553 1266.9629721 -63.33401319 1266.95240038 -65 1267 C-65 1267.33 -65 1267.66 -65 1268 C-66.41543415 1268.19658808 -67.83244031 1268.38187546 -69.25 1268.5625 C-70.03890625 1268.66691406 -70.8278125 1268.77132813 -71.640625 1268.87890625 C-74.00532874 1269.00027349 -75.7511037 1268.69633257 -78 1268 C-78.33 1268.66 -78.66 1269.32 -79 1270 C-84.28 1269.67 -89.56 1269.34 -95 1269 C-95 1269.66 -95 1270.32 -95 1271 C-113.19165379 1272.90417311 -113.19165379 1272.90417311 -117 1271 C-118.99960012 1270.960008 -121.00047242 1270.95653201 -123 1271 C-123.33 1271.66 -123.66 1272.32 -124 1273 C-125.03125 1272.979375 -126.0625 1272.95875 -127.125 1272.9375 C-130.8737928 1272.88916882 -130.8737928 1272.88916882 -134 1273.5625 C-137.53295219 1274.07772219 -140.50244971 1273.62955905 -144 1273 C-143.67 1273.66 -143.34 1274.32 -143 1275 C-145.35371114 1275.1968999 -147.7074695 1275.38270974 -150.0625 1275.5625 C-151.37347656 1275.66691406 -152.68445313 1275.77132813 -154.03515625 1275.87890625 C-157.92325897 1275.99765619 -161.19110223 1275.66866216 -165 1275 C-165 1275.66 -165 1276.32 -165 1277 C-166.093125 1276.79375 -167.18625 1276.5875 -168.3125 1276.375 C-172.0838401 1275.59653475 -172.0838401 1275.59653475 -175 1278 C-177.73990408 1277.96856707 -180.28417854 1277.44521663 -183 1277 C-183 1277.66 -183 1278.32 -183 1279 C-187.62 1279.33 -192.24 1279.66 -197 1280 C-197 1279.34 -197 1278.68 -197 1278 C-199.97065509 1278.34227572 -199.97065509 1278.34227572 -203 1279 C-203.33 1279.66 -203.66 1280.32 -204 1281 C-205.98 1280.67 -207.96 1280.34 -210 1280 C-210 1280.33 -210 1280.66 -210 1281 C-211.15628906 1280.96519531 -211.15628906 1280.96519531 -212.3359375 1280.9296875 C-213.33882812 1280.91164063 -214.34171875 1280.89359375 -215.375 1280.875 C-216.87160156 1280.84019531 -216.87160156 1280.84019531 -218.3984375 1280.8046875 C-221.16262173 1280.72783152 -221.16262173 1280.72783152 -223 1283 C-225.36669922 1283.1953125 -225.36669922 1283.1953125 -228.3046875 1283.125 C-229.36300781 1283.10953125 -230.42132813 1283.0940625 -231.51171875 1283.078125 C-233.74609797 1283.02622304 -235.98047302 1282.97414098 -238.21484375 1282.921875 C-239.27574219 1282.90640625 -240.33664063 1282.8909375 -241.4296875 1282.875 C-242.88737549 1282.84019531 -242.88737549 1282.84019531 -244.37451172 1282.8046875 C-246.99387743 1282.82423254 -246.99387743 1282.82423254 -249.03564453 1284.0703125 C-251 1285 -251 1285 -256 1284 C-255.67 861.27 -255.34 438.54 -255 3 C-254.34 3 -253.68 3 -253 3 C-253 2.34 -253 1.68 -253 1 C-251.72556156 1.00092179 -250.45112312 1.00184359 -249.13806534 1.00279331 C-218.89973092 1.02444134 -188.66139859 1.0409356 -158.42305829 1.05106533 C-154.70293728 1.05231607 -150.98281629 1.05361039 -147.26269531 1.05493164 C-146.15176048 1.05532511 -146.15176048 1.05532511 -145.01838252 1.05572652 C-133.01920914 1.06008031 -121.02004054 1.06796627 -109.02087 1.0771528 C-96.71275592 1.0864974 -84.40464434 1.09205733 -72.09652686 1.09408849 C-64.49901086 1.09546204 -56.90150837 1.09980356 -49.30399653 1.10791647 C-43.4826593 1.11381685 -37.66132903 1.11445691 -31.83998871 1.11310768 C-29.44863298 1.1133836 -27.05727676 1.11538335 -24.66592407 1.11920547 C-21.40928267 1.12415684 -18.15269979 1.12299288 -14.89605713 1.12025452 C-13.94275332 1.12316736 -12.98944951 1.1260802 -12.0072577 1.12908131 C-10.69948825 1.12609474 -10.69948825 1.12609474 -9.36529922 1.12304783 C-8.23752984 1.12361741 -8.23752984 1.12361741 -7.08697724 1.1241985 C-4.67301838 0.98054094 -2.37439049 0 0 0 Z M-3 2 C-2.01 3.485 -2.01 3.485 -1 5 C-1 4.01 -1 3.02 -1 2 C-1.66 2 -2.32 2 -3 2 Z M184 521 C183.67 522.65 183.34 524.3 183 526 C183.99 526.495 183.99 526.495 185 527 C185 525.02 185 523.04 185 521 C184.67 521 184.34 521 184 521 Z M185 528 C186 530 186 530 186 530 Z M186 531 C185.67 531.66 185.34 532.32 185 533 C185.66 533 186.32 533 187 533 C186.67 532.34 186.34 531.68 186 531 Z M190 542 C191 544 191 544 191 544 Z M197 557 C198 559 198 559 198 559 Z M1 730 C2 732 2 732 2 732 Z M2 734 C3 736 3 736 3 736 Z M4 739 C5 742 5 742 5 742 Z M5 742 C6 744 6 744 6 744 Z M6 745 C7 747 7 747 7 747 Z M8 751 C8.66 752.32 9.32 753.64 10 755 C9.67 753.68 9.34 752.36 9 751 C8.67 751 8.34 751 8 751 Z M10 756 C9.67 756.99 9.34 757.98 9 759 C9.66 759 10.32 759 11 759 C10.67 758.01 10.34 757.02 10 756 Z M11 759 C12 761 12 761 12 761 Z M12 762 C12.33 763.32 12.66 764.64 13 766 C13.33 765.34 13.66 764.68 14 764 C13.34 763.34 12.68 762.68 12 762 Z M1 764 C2 766 2 766 2 766 Z M14 768 C13.67 768.66 13.34 769.32 13 770 C13.66 770 14.32 770 15 770 C14.67 769.34 14.34 768.68 14 768 Z M15 770 C16 772 16 772 16 772 Z M16 773 C17 775 17 775 17 775 Z M17 775 C18 778 18 778 18 778 Z M18 779 C19 781 19 781 19 781 Z M20 784 C19.67 784.99 19.34 785.98 19 787 C19.66 787 20.32 787 21 787 C21.33 787.66 21.66 788.32 22 789 C21.67 787.35 21.34 785.7 21 784 C20.67 784 20.34 784 20 784 Z M22 790 C21.67 790.99 21.34 791.98 21 793 C21.33 793.66 21.66 794.32 22 795 C22.66 795 23.32 795 24 795 C23.67 793.35 23.34 791.7 23 790 C22.67 790 22.34 790 22 790 Z M21 795 C20.67 796.65 20.34 798.3 20 800 C20.99 800.495 20.99 800.495 22 801 C22.33 801.66 22.66 802.32 23 803 C23.66 803 24.32 803 25 803 C25.67958603 800.60280568 25.67958603 800.60280568 26 798 C25.34 797.34 24.68 796.68 24 796 C23.67 796.33 23.34 796.66 23 797 C22.34 796.34 21.68 795.68 21 795 Z M20 804 C20 804.66 20 805.32 20 806 C20.66 805.67 21.32 805.34 22 805 C21.34 804.67 20.68 804.34 20 804 Z M40 841 C41 843 41 843 41 843 Z M64 909 C65 911 65 911 65 911 Z M76 943 C77 945 77 945 77 945 Z M100 1011 C101 1013 101 1013 101 1013 Z M104 1022 C105 1024 105 1024 105 1024 Z M105 1024 C106 1026 106 1026 106 1026 Z M116 1056 C117 1058 117 1058 117 1058 Z M117 1058 C118 1060 118 1060 118 1060 Z M122 1073 C123 1075 123 1075 123 1075 Z M128 1090 C129 1092 129 1092 129 1092 Z M129 1092 C130 1094 130 1094 130 1094 Z M132 1101 C133 1103 133 1103 133 1103 Z M144 1135 C145 1137 145 1137 145 1137 Z M145 1138 C146 1140 146 1140 146 1140 Z M168 1203 C169 1205 169 1205 169 1205 Z M-53 1265 C-53 1265.33 -53 1265.66 -53 1266 C-50.03 1266 -47.06 1266 -44 1266 C-44 1265.67 -44 1265.34 -44 1265 C-46.97 1265 -49.94 1265 -53 1265 Z M233 1265 C233 1265.33 233 1265.66 233 1266 C237.62 1266 242.24 1266 247 1266 C247 1265.67 247 1265.34 247 1265 C242.38 1265 237.76 1265 233 1265 Z M-112 1269 C-112 1269.33 -112 1269.66 -112 1270 C-109.69 1270 -107.38 1270 -105 1270 C-105 1269.67 -105 1269.34 -105 1269 C-107.31 1269 -109.62 1269 -112 1269 Z M297 1269 C297 1269.33 297 1269.66 297 1270 C299.64 1270 302.28 1270 305 1270 C305 1269.67 305 1269.34 305 1269 C302.36 1269 299.72 1269 297 1269 Z M-156 1273 C-156 1273.33 -156 1273.66 -156 1274 C-154.35 1274 -152.7 1274 -151 1274 C-151 1273.67 -151 1273.34 -151 1273 C-152.65 1273 -154.3 1273 -156 1273 Z M344 1273 C344 1273.33 344 1273.66 344 1274 C346.31 1274 348.62 1274 351 1274 C351 1273.67 351 1273.34 351 1273 C348.69 1273 346.38 1273 344 1273 Z M-194 1277 C-194 1277.33 -194 1277.66 -194 1278 C-192.35 1278 -190.7 1278 -189 1278 C-189 1277.67 -189 1277.34 -189 1277 C-190.65 1277 -192.3 1277 -194 1277 Z M384 1277 C384 1277.33 384 1277.66 384 1278 C386.31 1278 388.62 1278 391 1278 C391 1277.67 391 1277.34 391 1277 C388.69 1277 386.38 1277 384 1277 Z M-234 1281 C-234 1281.33 -234 1281.66 -234 1282 C-231.69 1282 -229.38 1282 -227 1282 C-227 1281.67 -227 1281.34 -227 1281 C-229.31 1281 -231.62 1281 -234 1281 Z M420 1281 C420 1281.33 420 1281.66 420 1282 C421.65 1282 423.3 1282 425 1282 C425 1281.67 425 1281.34 425 1281 C423.35 1281 421.7 1281 420 1281 Z " fill="#E8010E" transform="translate(378,123)"/>
<path d="M0 0 C0 16.5 0 33 0 50 C0.33 50 0.66 50 1 50 C1 446.66 1 843.32 1 1252 C0.67 1252 0.34 1252 0 1252 C-0.33 1259.59 -0.66 1267.18 -1 1275 C-1.33 1275 -1.66 1275 -2 1275 C-2 1273.35 -2 1271.7 -2 1270 C-2.62108643 1269.9170166 -3.24217285 1269.8340332 -3.88208008 1269.74853516 C-6 1269 -6 1269 -7.0612793 1267.32568359 C-7.33367432 1266.56594238 -7.60606934 1265.80620117 -7.88671875 1265.0234375 C-8.21720215 1264.11561523 -8.54768555 1263.20779297 -8.88818359 1262.27246094 C-9.25508301 1261.19254883 -9.62198242 1260.11263672 -10 1259 C-10.21207092 1258.38145142 -10.42414185 1257.76290283 -10.64263916 1257.12561035 C-12.40563379 1251.97175741 -14.11223332 1246.79981864 -15.8125 1241.625 C-19.22040189 1231.27409253 -22.69325216 1220.9526681 -26.31065369 1210.6729126 C-29.39916117 1201.8886275 -32.40120618 1193.07559527 -35.39556885 1184.2588501 C-36.40852813 1181.27627933 -37.42265871 1178.29410876 -38.43701172 1175.31201172 C-41.77961097 1165.48346271 -45.11794952 1155.65346841 -48.45480347 1145.82296753 C-49.97666409 1141.3399289 -51.4992137 1136.85712438 -53.02178955 1132.37432861 C-54.09527131 1129.21256105 -55.16754643 1126.05038612 -56.23974609 1122.88818359 C-61.31611145 1107.9304381 -66.49849176 1093.01775692 -71.9375 1078.1875 C-74.45028677 1071.30977003 -76.91423859 1064.41844724 -79.3125 1057.5 C-82.31360871 1048.86585088 -85.42071137 1040.27124975 -88.5625 1031.6875 C-88.92462585 1030.69811935 -88.92462585 1030.69811935 -89.29406738 1029.68875122 C-91.7842683 1022.89635266 -94.29978598 1016.1245237 -97.0625 1009.4375 C-100.32983709 1001.436237 -103.04798588 993.25084362 -105.83837891 985.07348633 C-109.26458337 975.05121277 -112.8254622 965.08167689 -116.4375 955.125 C-117.54712141 952.06389136 -118.65646265 949.00268126 -119.765625 945.94140625 C-120.03807037 945.18955048 -120.31051575 944.4376947 -120.59121704 943.66305542 C-127.83915359 923.64601502 -134.86798855 903.55400859 -141.7890625 883.421875 C-145.22659125 873.42655431 -148.70801259 863.45163654 -152.39575195 853.5456543 C-157.0996584 840.90466191 -161.45828076 828.14767245 -165.83496094 815.390625 C-169.72282912 804.07572279 -173.6970512 792.7966179 -177.8125 781.5625 C-181.44326631 771.64757763 -184.90277911 761.67671094 -188.32348633 751.68774414 C-191.49210645 742.43793388 -194.73396241 733.21572425 -198 724 C-198.65235353 722.15828797 -199.30469678 720.3165723 -199.95703125 718.47485352 C-202.48325907 711.34384799 -205.01016969 704.21308429 -207.53833008 697.08276367 C-208.6287769 694.00712575 -209.71882914 690.93134846 -210.80859375 687.85546875 C-211.34478836 686.34211441 -211.34478836 686.34211441 -211.89181519 684.79818726 C-213.8259115 679.33410095 -215.74789137 673.8660349 -217.65516663 668.39253235 C-221.83718163 656.39202967 -226.16064501 644.44437017 -230.5 632.5 C-245.13635643 592.21243204 -245.13635643 592.21243204 -249.25 578.875 C-249.49322998 578.09568115 -249.73645996 577.3163623 -249.98706055 576.51342773 C-254.5399355 561.8895506 -254.5399355 561.8895506 -255.4375 558.203125 C-257.69881996 549.34628851 -260.61453035 540.68413118 -264.125 532.25 C-271.54181802 514.20495823 -271.54181802 514.20495823 -269.3125 508.125 C-268.8559055 505.02015737 -270.26514442 503.49819204 -272 501 C-272 501.66 -272 502.32 -272 503 C-272.99 502.67 -273.98 502.34 -275 502 C-275 501.01 -275 500.02 -275 499 C-273.68 498.67 -272.36 498.34 -271 498 C-271.33 497.34 -271.66 496.68 -272 496 C-271.01 496 -270.02 496 -269 496 C-269.66 495.67 -270.32 495.34 -271 495 C-271.07427838 491.65747276 -271.06546953 489.1964086 -270 486 C-267.625 484.6875 -267.625 484.6875 -265 484 C-264.01 484.66 -263.02 485.32 -262 486 C-261.01 484.02 -261.01 484.02 -260 482 C-259.67 482.33 -259.34 482.66 -259 483 C-257.91269575 476.82591216 -257.84750843 470.78777496 -257.84178162 464.52833557 C-257.83684364 463.37895994 -257.83190566 462.2295843 -257.82681805 461.0453791 C-257.81147144 457.19765325 -257.80309007 453.34994406 -257.79467773 449.50219727 C-257.78564014 446.74257544 -257.77512971 443.98295968 -257.76467896 441.2233429 C-257.74295609 435.28391269 -257.72479636 429.34448021 -257.70907402 423.4050312 C-257.68633714 414.81764302 -257.65819966 406.23027916 -257.62875474 397.64291167 C-257.58112557 383.7096244 -257.53784876 369.77632716 -257.49731445 355.84301758 C-257.45793571 342.31013209 -257.4165038 328.77725544 -257.37231445 315.24438477 C-257.36959018 314.40986507 -257.36686591 313.57534537 -257.36405908 312.7155372 C-257.35037921 308.52889158 -257.33665902 304.34224609 -257.32291877 300.15560067 C-257.20902746 265.43708547 -257.10220191 230.7185515 -257 196 C-256.67 196 -256.34 196 -256 196 C-255.67 139.24 -255.34 82.48 -255 24 C-254.67 24 -254.34 24 -254 24 C-254 23.40985107 -254 22.81970215 -254 22.21166992 C-254 15.14111328 -254 8.07055664 -254 1 C-222.50839688 0.87246586 -191.01679326 0.74505541 -159.52518895 0.61781773 C-155.80764549 0.60279738 -152.09010204 0.58777597 -148.37255859 0.57275391 C-147.63245999 0.56976329 -146.89236139 0.56677268 -146.12983556 0.56369144 C-134.14494863 0.51526 -122.16006205 0.46674308 -110.17517559 0.41819459 C-97.87835204 0.36838441 -85.58152812 0.31866604 -73.28470385 0.26903296 C-65.69641207 0.2384018 -58.10812059 0.20769897 -50.51982947 0.17690456 C-44.70195474 0.15330243 -38.88407951 0.12982801 -33.06620407 0.10640144 C-30.67891422 0.09676861 -28.29162453 0.08709419 -25.90433502 0.07737541 C-22.64841251 0.06412656 -19.39248943 0.05102647 -16.13656616 0.03796387 C-15.18908803 0.03407292 -14.2416099 0.03018197 -13.26542032 0.02617311 C-12.38959192 0.02268972 -11.51376353 0.01920632 -10.61139488 0.01561737 C-9.86030807 0.01257961 -9.10922126 0.00954185 -8.33537424 0.00641203 C-5.55692581 -0.00121651 -2.7784589 0 0 0 Z " fill="#AF000C" transform="translate(830,125)"/>
<path d="M0 0 C2.87226772 3.62707563 4.37090358 7.29633434 5.85546875 11.640625 C6.24904572 12.76537987 6.24904572 12.76537987 6.65057373 13.91285706 C7.50331099 16.35616845 8.34557483 18.80294409 9.1875 21.25 C9.77956867 22.95418028 10.37210118 24.65819949 10.96508789 26.36206055 C14.33346533 36.06270288 17.62615962 45.78670414 20.83520508 55.54125977 C24.64418226 67.06020978 28.69967881 78.49392032 32.71972656 89.94042969 C33.32751766 91.67120861 33.9352654 93.40200276 34.54296875 95.1328125 C34.84091339 95.98137817 35.13885803 96.82994385 35.4458313 97.70422363 C38.05651975 105.14674567 40.62762679 112.60235752 43.1875 120.0625 C47.06648693 131.36250475 51.04010649 142.62674187 55.07104492 153.87329102 C57.15866917 159.71840155 59.19945482 165.56949212 61.1370697 171.4657135 C64.26585771 180.98465056 67.68055524 190.37179925 71.23510742 199.73937988 C72.88708374 204.09418594 74.52666682 208.45366221 76.16796875 212.8125 C76.49513885 213.6805426 76.82230896 214.54858521 77.15939331 215.44293213 C83.34408581 231.86329557 89.42688946 248.32518996 95.16479492 264.9074707 C97.85581555 272.6579546 100.65939198 280.36679716 103.45715332 288.07919312 C108.1905843 301.12990475 112.83645798 314.20244975 117.33129883 327.33764648 C120.32641986 336.08083283 123.39676492 344.79480348 126.5 353.5 C130.07952805 363.54285636 133.60291629 373.60248711 137.0625 383.6875 C140.68451196 394.24503643 144.40031851 404.76522277 148.17471313 415.26916504 C151.063784 423.32898206 153.877041 431.41212714 156.65234375 439.51171875 C161.63124657 453.99303726 166.73197126 468.42979608 171.86660767 482.85662842 C173.06969591 486.23802235 174.27113415 489.62000244 175.47265625 493.00195312 C175.96279537 494.38150156 176.45293819 495.76104868 176.94308472 497.14059448 C177.18544735 497.82273891 177.42780998 498.50488335 177.67751694 499.20769882 C178.40695232 501.26051458 179.13656749 503.31326635 179.86624146 505.36599731 C183.75091326 516.29482445 187.62551848 527.22719717 191.49526978 538.16131592 C194.66191773 547.10810873 197.8311956 556.0539708 201 565 C201.41358765 566.16770935 201.82717529 567.3354187 202.2532959 568.53851318 C205.22393835 576.92530459 208.19590319 585.31162618 211.16937637 593.6974144 C211.87247429 595.6803767 212.5754446 597.6633842 213.27841187 599.64639282 C219.09805204 616.06112446 224.95452864 632.46193366 230.85205078 648.84887695 C242.88333044 682.28051185 242.88333044 682.28051185 247.5 696 C247.83169189 696.97670654 248.16338379 697.95341309 248.50512695 698.9597168 C252.86210838 712.14870447 254.43146223 724.09719898 254.32279968 737.88334656 C254.31997214 739.669112 254.31847876 741.45487996 254.31819278 743.24064761 C254.31359541 748.11941577 254.29022486 752.99793683 254.26365387 757.87662804 C254.23826088 763.15323021 254.23049792 768.42986266 254.22055054 773.70651245 C254.2009152 782.85587689 254.17021461 792.00515025 254.13199425 801.15445518 C254.07644145 814.46320242 254.03806193 827.77195729 254.003723 841.08077417 C253.94728706 862.78249099 253.87746594 884.48414319 253.79907227 906.18579102 C253.72363555 927.07770136 253.65371751 947.96961653 253.59204102 968.86157227 C253.58826585 970.13955607 253.58449068 971.41753987 253.58060112 972.73425045 C253.55790999 980.43382132 253.53545305 988.13339285 253.51307748 995.83296464 C253.48001624 1007.2014542 253.44663844 1018.56994281 253.41304016 1029.93843079 C253.40940849 1031.16945632 253.40577682 1032.40048185 253.40203509 1033.66881118 C253.35243955 1050.43549818 253.29872732 1067.20216695 253.24120081 1083.96882857 C253.20673073 1094.02568533 253.17284933 1104.08254408 253.1394043 1114.1394043 C253.13586027 1115.20469639 253.13231625 1116.26998849 253.12866484 1117.36756216 C252.9992473 1156.50114465 252.9595365 1195.6342981 252.99781829 1234.7680667 C253.00827834 1245.46891067 253.00827834 1245.46891067 250.3125 1249.5625 C247.3759823 1251.38790289 245.400448 1251.14784557 242 1251 C241.34 1251.66 240.68 1252.32 240 1253 C238.16821289 1253.10351562 238.16821289 1253.10351562 235.97265625 1252.90625 C234.78446289 1252.81537109 234.78446289 1252.81537109 233.57226562 1252.72265625 C231.90296425 1252.57456259 230.23369321 1252.42612668 228.56445312 1252.27734375 C227.77103516 1252.21675781 226.97761719 1252.15617187 226.16015625 1252.09375 C225.43449463 1252.02865234 224.70883301 1251.96355469 223.96118164 1251.89648438 C221.67225566 1251.85011041 221.67225566 1251.85011041 219 1254 C216.90283203 1254.3347168 216.90283203 1254.3347168 214.5078125 1254.44921875 C213.20263672 1254.51399414 213.20263672 1254.51399414 211.87109375 1254.58007812 C210.96488281 1254.61552734 210.05867187 1254.65097656 209.125 1254.6875 C208.22652344 1254.73455078 207.32804688 1254.78160156 206.40234375 1254.83007812 C202.0833008 1255.02465835 198.22173959 1255.08166942 194 1254 C192.3337447 1253.9629721 190.66598681 1253.95240038 189 1254 C189 1254.33 189 1254.66 189 1255 C187.58456585 1255.19658808 186.16755969 1255.38187546 184.75 1255.5625 C183.96109375 1255.66691406 183.1721875 1255.77132813 182.359375 1255.87890625 C179.99467126 1256.00027349 178.2488963 1255.69633257 176 1255 C175.67 1255.66 175.34 1256.32 175 1257 C169.72 1256.67 164.44 1256.34 159 1256 C159 1256.66 159 1257.32 159 1258 C140.80834621 1259.90417311 140.80834621 1259.90417311 137 1258 C135.00039988 1257.960008 132.99952758 1257.95653201 131 1258 C130.67 1258.66 130.34 1259.32 130 1260 C128.96875 1259.979375 127.9375 1259.95875 126.875 1259.9375 C123.1262072 1259.88916882 123.1262072 1259.88916882 120 1260.5625 C116.46704781 1261.07772219 113.49755029 1260.62955905 110 1260 C110.33 1260.66 110.66 1261.32 111 1262 C108.64628886 1262.1968999 106.2925305 1262.38270974 103.9375 1262.5625 C102.62652344 1262.66691406 101.31554687 1262.77132813 99.96484375 1262.87890625 C96.07674103 1262.99765619 92.80889777 1262.66866216 89 1262 C89 1262.66 89 1263.32 89 1264 C87.906875 1263.79375 86.81375 1263.5875 85.6875 1263.375 C81.9161599 1262.59653475 81.9161599 1262.59653475 79 1265 C76.26009592 1264.96856707 73.71582146 1264.44521663 71 1264 C71 1264.66 71 1265.32 71 1266 C66.38 1266.33 61.76 1266.66 57 1267 C57 1266.34 57 1265.68 57 1265 C54.02934491 1265.34227572 54.02934491 1265.34227572 51 1266 C50.67 1266.66 50.34 1267.32 50 1268 C48.02 1267.67 46.04 1267.34 44 1267 C44 1267.33 44 1267.66 44 1268 C42.84371094 1267.96519531 42.84371094 1267.96519531 41.6640625 1267.9296875 C40.66117188 1267.91164063 39.65828125 1267.89359375 38.625 1267.875 C37.12839844 1267.84019531 37.12839844 1267.84019531 35.6015625 1267.8046875 C32.83737827 1267.72783152 32.83737827 1267.72783152 31 1270 C28.63330078 1270.1953125 28.63330078 1270.1953125 25.6953125 1270.125 C24.63699219 1270.10953125 23.57867187 1270.0940625 22.48828125 1270.078125 C20.25390203 1270.02622304 18.01952698 1269.97414098 15.78515625 1269.921875 C14.72425781 1269.90640625 13.66335937 1269.8909375 12.5703125 1269.875 C11.11262451 1269.84019531 11.11262451 1269.84019531 9.62548828 1269.8046875 C7.00612257 1269.82423254 7.00612257 1269.82423254 4.96435547 1271.0703125 C2.33087115 1272.3166844 0.77386175 1271.65122384 -2 1271 C-1.97489756 1232.46761054 -1.94957068 1193.93522123 -1.92407227 1155.40283203 C-1.92357333 1154.64882899 -1.9230744 1153.89482595 -1.92256034 1153.11797433 C-1.86909788 1072.33327667 -1.81418412 991.54858015 -1.7563324 910.7638855 C-1.75504787 908.96964462 -1.75376334 907.17540374 -1.75247882 905.38116286 C-1.72551248 867.72040659 -1.69834187 830.05965047 -1.67093527 792.39889452 C-1.65716845 773.48093203 -1.64344088 754.56296951 -1.62975043 735.64500697 C-1.62768504 732.79128583 -1.62561852 729.9375647 -1.62355196 727.08384356 C-1.59173593 683.13534402 -1.56076232 639.18684409 -1.53222656 595.23834229 C-1.5316129 594.29325509 -1.53099924 593.34816789 -1.53036698 592.37444169 C-1.52047792 577.13662844 -1.5106595 561.89881515 -1.50085045 546.66100185 C-1.47259973 502.77675115 -1.44382757 458.89250108 -1.41159725 415.0082531 C-1.41093485 414.10599611 -1.41027245 413.20373913 -1.40958998 412.27414102 C-1.39504009 392.46842119 -1.38022151 372.66270156 -1.36514846 352.85698211 C-1.35908851 344.88808245 -1.35306723 336.91918275 -1.34705925 328.95028305 C-1.34640077 328.07811638 -1.34574228 327.20594971 -1.34506384 326.30735375 C-1.32385921 298.19620224 -1.30580489 270.08504979 -1.28939963 241.9738951 C-1.27286242 213.66128863 -1.25324234 185.34868612 -1.22932569 157.03608487 C-1.22602276 153.12515562 -1.22275526 149.21422634 -1.21950912 145.30329704 C-1.2188715 144.5366315 -1.21823387 143.76996597 -1.21757693 142.98006814 C-1.20756505 130.83162371 -1.20089445 118.68317982 -1.19561227 106.53473251 C-1.19035197 94.59410581 -1.18148397 82.65348645 -1.16901226 70.71286507 C-1.16244202 64.32319678 -1.15746617 57.93353792 -1.15683801 51.54386605 C-1.15623635 45.73429509 -1.15109158 39.92474679 -1.14227938 34.11518264 C-1.13991029 32.0233545 -1.1392149 29.93152365 -1.1403735 27.83969449 C-1.14170361 25.00228739 -1.13691002 22.16495283 -1.13061053 19.32755387 C-1.13246015 18.52132425 -1.13430977 17.71509464 -1.13621545 16.88443383 C-1.1144126 11.20860706 -0.64921727 5.63728186 0 0 Z M201 1252 C201 1252.33 201 1252.66 201 1253 C203.97 1253 206.94 1253 210 1253 C210 1252.67 210 1252.34 210 1252 C207.03 1252 204.06 1252 201 1252 Z M142 1256 C142 1256.33 142 1256.66 142 1257 C144.31 1257 146.62 1257 149 1257 C149 1256.67 149 1256.34 149 1256 C146.69 1256 144.38 1256 142 1256 Z M98 1260 C98 1260.33 98 1260.66 98 1261 C99.65 1261 101.3 1261 103 1261 C103 1260.67 103 1260.34 103 1260 C101.35 1260 99.7 1260 98 1260 Z M60 1264 C60 1264.33 60 1264.66 60 1265 C61.65 1265 63.3 1265 65 1265 C65 1264.67 65 1264.34 65 1264 C63.35 1264 61.7 1264 60 1264 Z M20 1268 C20 1268.33 20 1268.66 20 1269 C22.31 1269 24.62 1269 27 1269 C27 1268.67 27 1268.34 27 1268 C24.69 1268 22.38 1268 20 1268 Z " fill="#AF000B" transform="translate(124,136)"/>
<path d="M0 0 C2.72567761 1.3628388 2.90877185 3.11645429 3.85121155 5.88574219 C4.08078049 6.58473633 4.31034943 7.28373047 4.546875 8.00390625 C4.9182383 9.10351685 4.9182383 9.10351685 5.29710388 10.2253418 C5.83662551 11.82519104 6.3728069 13.4261696 6.90609741 15.02810669 C8.351017 19.36746363 9.82019817 23.69862631 11.28515625 28.03125 C11.58944046 28.9335585 11.89372467 29.835867 12.20722961 30.76551819 C15.4576883 40.39134944 18.81781848 49.97789563 22.1875 59.5625 C23.36526073 62.91642918 24.54225083 66.27062809 25.71875 69.625 C26.1422599 70.83234802 26.1422599 70.83234802 26.57432556 72.06408691 C29.14058025 79.38716781 31.66818042 86.72314943 34.1875 94.0625 C38.06662605 105.3624588 42.04010564 116.62673949 46.07104492 127.87329102 C48.15866917 133.71840155 50.19945482 139.56949212 52.1370697 145.4657135 C55.26585771 154.98465056 58.68055524 164.37179925 62.23510742 173.73937988 C63.88708374 178.09418594 65.52666682 182.45366221 67.16796875 186.8125 C67.49513885 187.6805426 67.82230896 188.54858521 68.15939331 189.44293213 C74.34408581 205.86329557 80.42688946 222.32518996 86.16479492 238.9074707 C88.85581555 246.6579546 91.65939198 254.36679716 94.45715332 262.07919312 C99.1905843 275.12990475 103.83645798 288.20244975 108.33129883 301.33764648 C111.32641986 310.08083283 114.39676492 318.79480348 117.5 327.5 C121.07952805 337.54285636 124.60291629 347.60248711 128.0625 357.6875 C131.68451196 368.24503643 135.40031851 378.76522277 139.17471313 389.26916504 C142.063784 397.32898206 144.877041 405.41212714 147.65234375 413.51171875 C152.63124657 427.99303726 157.73197126 442.42979608 162.86660767 456.85662842 C164.06969591 460.23802235 165.27113415 463.62000244 166.47265625 467.00195312 C166.96279537 468.38150156 167.45293819 469.76104868 167.94308472 471.14059448 C168.18544735 471.82273891 168.42780998 472.50488335 168.67751694 473.20769882 C169.40695232 475.26051458 170.13656749 477.31326635 170.86624146 479.36599731 C174.75091326 490.29482445 178.62551848 501.22719717 182.49526978 512.16131592 C185.66191773 521.10810873 188.8311956 530.0539708 192 539 C192.41358765 540.16770935 192.82717529 541.3354187 193.2532959 542.53851318 C196.22393835 550.92530459 199.19590319 559.31162618 202.16937637 567.6974144 C202.87247429 569.6803767 203.5754446 571.6633842 204.27841187 573.64639282 C210.09805204 590.06112446 215.95452864 606.46193366 221.85205078 622.84887695 C233.88333044 656.28051185 233.88333044 656.28051185 238.5 670 C238.83169189 670.97670654 239.16338379 671.95341309 239.50512695 672.9597168 C241.78989409 679.87591923 243.45586497 686.88453528 245 694 C244.34 694 243.68 694 243 694 C242.75765625 693.17757812 242.5153125 692.35515625 242.265625 691.5078125 C239.9771117 683.87267715 239.9771117 683.87267715 237.125 676.4375 C235.09385093 671.56116158 233.65598589 666.56603716 232.1875 661.5 C230.01541441 654.04324542 227.49379682 646.84242095 224.60180664 639.63720703 C222.59071482 634.60093488 220.79519867 629.53376345 219.125 624.375 C216.79944825 617.21385257 214.23057134 610.1654493 211.5625 603.125 C208.4602936 594.93853232 205.46246306 586.72896263 202.60058594 578.45556641 C200.40270949 572.11279549 198.12009299 565.80361662 195.8125 559.5 C193.43173492 552.99388101 191.13017649 546.47861203 188.984375 539.890625 C187.54855898 535.67433986 185.94394953 531.52334199 184.35766602 527.36206055 C182.09276118 521.36580163 180.05819075 515.30294175 178.09228516 509.20263672 C176.62128489 504.6825792 174.8790179 500.37075902 173 496 C172.36433155 494.03072509 171.75978355 492.05112002 171.1875 490.0625 C168.11844921 479.8596632 164.15888363 469.99126737 160.3125 460.0625 C157.55794636 452.912942 155.21337223 445.70836157 153 438.375 C151.59169087 433.7606538 149.93026385 429.42352131 148 425 C147.38158085 423.19231326 146.77923339 421.37909715 146.1875 419.5625 C144.6256464 414.7819215 142.91824676 410.07261459 141.125 405.375 C138.68571241 398.96015012 136.45928008 392.49457087 134.31420898 385.97607422 C132.22465314 379.63688166 130.03826115 373.33533957 127.82104492 367.03979492 C126.10679013 362.1691048 124.40898166 357.29329532 122.73046875 352.41015625 C118.24823656 339.22765187 118.24823656 339.22765187 113.375 326.1875 C111.08081988 320.35196803 109.11166905 314.4322269 107.14794922 308.47973633 C100.53295444 288.46268564 93.88458018 268.4158448 86.47192383 248.67822266 C83.93620589 241.90626152 81.55650433 235.08185418 79.1875 228.25 C78.80174805 227.14108398 78.41599609 226.03216797 78.01855469 224.88964844 C76.20040152 219.62555459 74.45187046 214.37729801 73 209 C72.34 209 71.68 209 71 209 C70.54427083 206.98177083 70.08854167 204.96354167 69.6328125 202.9453125 C69.09525572 200.79280036 69.09525572 200.79280036 67 199 C66.34 200.32 65.68 201.64 65 203 C63.08398627 194.51479635 63.08398627 194.51479635 62.68334961 192.05908203 C61.16260678 183.30012546 58.16529169 175.01861273 55.3125 166.625 C54.7657254 165.00232791 54.21934098 163.3795243 53.67333984 161.7565918 C49.61587099 149.71926772 45.4708394 137.71413047 41.19677734 125.75195312 C38.24784792 117.49708379 35.39729535 109.25004222 32.86328125 100.85546875 C31.18227809 95.29522753 29.37558275 89.85638696 27.125 84.5 C25.41712074 80.30040136 24.10418652 76.04562048 22.875 71.6875 C20.6324064 63.79655945 18.00858207 56.05908398 15.3125 48.3125 C11.84816529 38.34924712 8.40355273 28.38094767 5.04867554 18.38021851 C4.60168766 17.04974364 4.15299325 15.71984081 3.70254517 14.39053345 C3.07594721 12.54048434 2.45579106 10.6882572 1.8359375 8.8359375 C1.48063965 7.77938965 1.1253418 6.7228418 0.75927734 5.63427734 C0 3 0 3 0 0 Z " fill="#74000F" transform="translate(133,162)"/>
<path d="M0 0 C3.55226546 3.55226546 5.06641442 7.37822019 5.5625 12.3125 C5.706875 13.529375 5.85125 14.74625 6 16 C6.66 16.33 7.32 16.66 8 17 C8.33333333 19.33333333 8.66666667 21.66666667 9 24 C9.66 24.33 10.32 24.66 11 25 C11.91870117 27.31835938 11.91870117 27.31835938 12.85546875 30.34375 C14.81597781 36.47815836 17.01831128 42.48390425 19.3125 48.5 C22.56510507 57.09453374 25.70777965 65.71716633 28.7043457 74.40429688 C30.12864562 78.53198601 31.60200792 82.63265235 33.14697266 86.71728516 C35.06685948 91.85493307 36.90121718 97.02395167 38.75 102.1875 C39.15476562 103.31091797 39.55953125 104.43433594 39.9765625 105.59179688 C42.52737421 112.71743394 44.97111714 119.87066734 47.3515625 127.0546875 C50.69141233 137.133156 54.1541575 147.16570649 57.66210938 157.18676758 C58.63307119 159.96055734 59.60186705 162.7350964 60.5703125 165.50976562 C63.66970584 174.38288431 66.7864991 183.24876687 69.97021484 192.09204102 C70.31004395 193.05166748 70.64987305 194.01129395 71 195 C71.37463379 196.0530835 71.74926758 197.10616699 72.13525391 198.19116211 C73 201 73 201 73 204 C73.66 204 74.32 204 75 204 C75.21914063 204.72960937 75.43828125 205.45921875 75.6640625 206.2109375 C77.70839262 212.94226839 79.84291585 219.63711106 82.0625 226.3125 C82.30758301 227.05226074 82.55266602 227.79202148 82.80517578 228.55419922 C84.91560961 234.86856077 87.05065621 241.17840455 89.9375 247.1875 C92.53973982 252.93825135 94.20208282 258.96142584 96 265 C98.05591469 271.49714475 100.37262671 277.90665406 102.65869141 284.32543945 C103.95916933 287.99156017 105.22897234 291.66316946 106.4296875 295.36328125 C106.65285645 296.0495459 106.87602539 296.73581055 107.10595703 297.44287109 C107.71655267 299.33391217 108.31943924 301.22743735 108.921875 303.12109375 C109.80303109 306.07917048 109.80303109 306.07917048 112 308 C112.66604806 310.27445234 113.25878953 312.57062195 113.8125 314.875 C115.32723811 320.92742025 117.33060017 326.50211077 119.83984375 332.2265625 C121.58033315 336.3873284 122.76369334 340.66931175 124 345 C125.79442644 350.80161187 127.88917303 356.49519324 130 362.1875 C130.24919189 362.86506348 130.49838379 363.54262695 130.75512695 364.24072266 C131.87680281 367.23700527 133.03777206 370.07367518 134.5 372.92578125 C136.41044442 376.84119728 137.66986645 380.85909753 139 385 C142.96059772 396.71736403 147.12570985 408.25289132 152.13671875 419.56640625 C153 422 153 422 153 426 C153.66 426 154.32 426 155 426 C155.50559908 427.43554025 156.0042749 428.8735202 156.5 430.3125 C156.7784375 431.11300781 157.056875 431.91351562 157.34375 432.73828125 C158 435 158 435 158 438 C158.66 438 159.32 438 160 438 C160.66 437.34 161.32 436.68 162 436 C162.22494141 437.03213623 162.44988281 438.06427246 162.68164062 439.12768555 C165.01989134 449.59656603 168.02119176 459.67262528 171.5 469.8125 C172.02655706 471.36730987 172.55225298 472.9224116 173.07714844 474.4777832 C174.16588549 477.70151759 175.2582474 480.92398674 176.35351562 484.14550781 C179.01538296 491.98287881 181.63278749 499.83512827 184.25 507.6875 C184.50089386 508.43968811 184.75178772 509.19187622 185.01028442 509.96685791 C188.19764672 519.52597622 191.35713849 529.09323867 194.4375 538.6875 C194.73108398 539.59910889 195.02466797 540.51071777 195.32714844 541.44995117 C196.8566557 546.24819159 198.31323777 551.06152177 199.71150208 555.89976501 C202.84430584 566.719944 206.42163444 577.37000196 210.07226562 588.02490234 C210.87120657 590.36118491 211.66258125 592.69992755 212.453125 595.0390625 C212.81558319 596.0860582 212.81558319 596.0860582 213.18536377 597.15420532 C214.63636904 601.46345486 215.48991744 605.50645036 216 610 C213.9376289 607.9376289 213.47820304 606.9414265 212.57397461 604.25195312 C212.30802994 603.47065033 212.04208527 602.68934753 211.76808167 601.8843689 C211.48238815 601.02533966 211.19669464 600.16631042 210.90234375 599.28125 C210.59606552 598.37621735 210.28978729 597.47118469 209.97422791 596.53872681 C208.95656024 593.52761851 207.94713922 590.51380878 206.9375 587.5 C206.22799927 585.3967624 205.51786575 583.29373818 204.80712891 581.19091797 C203.30775748 576.75283369 201.8112992 572.31378252 200.31689453 567.87402344 C196.88862673 557.69475253 193.43122229 547.52538595 189.97317505 537.35620117 C188.9012143 534.20213131 187.83114577 531.0474251 186.76147461 527.89257812 C181.68514944 512.93321651 176.50202968 498.01917869 171.0625 483.1875 C168.54971323 476.30977003 166.08576141 469.41844724 163.6875 462.5 C160.68639129 453.86585088 157.57928863 445.27124975 154.4375 436.6875 C154.07537415 435.69811935 154.07537415 435.69811935 153.70593262 434.68875122 C151.2157317 427.89635266 148.70021402 421.1245237 145.9375 414.4375 C142.67016291 406.436237 139.95201412 398.25084362 137.16162109 390.07348633 C133.73541663 380.05121277 130.1745378 370.08167689 126.5625 360.125 C125.45287859 357.06389136 124.34353735 354.00268126 123.234375 350.94140625 C122.82570694 349.81362259 122.82570694 349.81362259 122.40878296 348.66305542 C115.16084641 328.64601502 108.13201145 308.55400859 101.2109375 288.421875 C97.77340875 278.42655431 94.29198741 268.45163654 90.60424805 258.5456543 C85.9003416 245.90466191 81.54171924 233.14767245 77.16503906 220.390625 C73.27717088 209.07572279 69.3029488 197.7966179 65.1875 186.5625 C61.55673369 176.64757763 58.09722089 166.67671094 54.67651367 156.68774414 C51.50789355 147.43793388 48.26603759 138.21572425 45 129 C44.34764647 127.15828797 43.69530322 125.3165723 43.04296875 123.47485352 C40.51674093 116.34384799 37.98983031 109.21308429 35.46166992 102.08276367 C34.3712231 99.00712575 33.28116829 95.93134937 32.19140625 92.85546875 C31.83380722 91.84615799 31.47620819 90.83684723 31.10777283 89.79695129 C29.1771868 84.34268065 27.2584135 78.88452798 25.35430908 73.42095947 C21.10356469 61.22470368 16.71558514 49.0794576 12.3125 36.9375 C11.55914841 34.85745678 10.80589285 32.77737878 10.05273438 30.69726562 C8.67025209 26.87991856 7.28741382 23.06270131 5.90356445 19.24584961 C5.44114853 17.96519119 5.44114853 17.96519119 4.96939087 16.65866089 C4.27989117 14.76763225 3.57893947 12.88076218 2.87020874 10.99685669 C2.50335968 10.01506439 2.13651062 9.03327209 1.75854492 8.02172852 C1.422155 7.13171646 1.08576508 6.24170441 0.73918152 5.32472229 C0 3 0 3 0 0 Z " fill="#7A000B" transform="translate(587,720)"/>
<path d="M0 0 C0.33 0 0.66 0 1 0 C1.09914892 90.78601874 1.08852875 181.5719987 0.71086216 345.31695557 C0.70844779 346.1393598 0.70603341 346.96176403 0.70354588 347.8090896 C0.68320521 354.73427621 0.68320521 354.73427621 0.67428436 357.75849354 C0.6377173 370.18936919 0.6066166 382.62025028 0.57839966 395.05114746 C0.54600361 409.30302433 0.50641674 423.55486082 0.45731026 437.80669034 C0.43213968 445.15974268 0.41006072 452.5127721 0.39663887 459.86585617 C0.38425673 466.64324089 0.36195358 473.42051755 0.33261287 480.19785357 C0.32354182 482.66511539 0.31785164 485.1323923 0.31578743 487.59966993 C0.31247549 490.94872674 0.29703923 494.29751304 0.2784729 497.64651489 C0.28137497 499.10348551 0.28137497 499.10348551 0.28433567 500.58988988 C0.24437501 505.38550354 0.13485829 509.59305006 -2 514 C-2.99 514.33 -3.98 514.66 -5 515 C-5 514.34 -5 513.68 -5 513 C-5.99 512.67 -6.98 512.34 -8 512 C-11.79468208 504.56409725 -15 494.37294141 -15 486 C-14.773125 485.38125 -14.54625 484.7625 -14.3125 484.125 C-13.8559055 481.02015737 -15.26514442 479.49819204 -17 477 C-17 477.66 -17 478.32 -17 479 C-17.99 478.67 -18.98 478.34 -20 478 C-20 477.01 -20 476.02 -20 475 C-18.68 474.67 -17.36 474.34 -16 474 C-16.33 473.34 -16.66 472.68 -17 472 C-16.01 472 -15.02 472 -14 472 C-14.66 471.67 -15.32 471.34 -16 471 C-16.07427838 467.65747276 -16.06546953 465.1964086 -15 462 C-12.625 460.6875 -12.625 460.6875 -10 460 C-9.01 460.66 -8.02 461.32 -7 462 C-6.01 460.02 -6.01 460.02 -5 458 C-4.67 458.33 -4.34 458.66 -4 459 C-2.91269575 452.82591216 -2.84750843 446.78777496 -2.84178162 440.52833557 C-2.83684364 439.37895994 -2.83190566 438.2295843 -2.82681805 437.0453791 C-2.81147144 433.19765325 -2.80309007 429.34994406 -2.79467773 425.50219727 C-2.78564014 422.74257544 -2.77512971 419.98295968 -2.76467896 417.2233429 C-2.74295609 411.28391269 -2.72479636 405.34448021 -2.70907402 399.4050312 C-2.68633714 390.81764302 -2.65819966 382.23027916 -2.62875474 373.64291167 C-2.58112557 359.7096244 -2.53784876 345.77632716 -2.49731445 331.84301758 C-2.45793571 318.31013209 -2.4165038 304.77725544 -2.37231445 291.24438477 C-2.36959018 290.40986507 -2.36686591 289.57534537 -2.36405908 288.7155372 C-2.35037921 284.52889158 -2.33665902 280.34224609 -2.32291877 276.15560067 C-2.20902746 241.43708547 -2.10220191 206.7185515 -2 172 C-1.67 172 -1.34 172 -1 172 C-0.67 115.24 -0.34 58.48 0 0 Z " fill="#250001" transform="translate(575,149)"/>
<path d="M0 0 C0.33 0 0.66 0 1 0 C1 418.44 1 836.88 1 1268 C0.67 1268 0.34 1268 0 1268 C0 849.56 0 431.12 0 0 Z " fill="#7B0004" transform="translate(121,126)"/>
<path d="M0 0 C0.99 1.485 0.99 1.485 2 3 C2.495 3.680625 2.99 4.36125 3.5 5.0625 C5.3187614 8.62424108 5.8623666 11.96152211 6.47265625 15.890625 C6.64667969 16.58671875 6.82070313 17.2828125 7 18 C7.66 18.33 8.32 18.66 9 19 C9 20.98 9 22.96 9 25 C9.66 25 10.32 25 11 25 C11.12632812 25.56589844 11.25265625 26.13179687 11.3828125 26.71484375 C12.02995408 29.11090594 12.90444895 31.27907175 13.875 33.5625 C16.36614362 39.69034963 19 46.32178954 19 53 C19.66 53 20.32 53 21 53 C21 54.98 21 56.96 21 59 C21.66 59.33 22.32 59.66 23 60 C22.62875 60.5775 22.2575 61.155 21.875 61.75 C20.72996006 63.97062052 20.72996006 63.97062052 21.75 66.125 C22.99591425 68.12665834 22.99591425 68.12665834 25 70 C25 71.32 25 72.64 25 74 C23.515 73.505 23.515 73.505 22 73 C21.01 73.495 21.01 73.495 20 74 C19.34227572 77.02934491 19.34227572 77.02934491 19 80 C17.515 79.505 17.515 79.505 16 79 C15.505 79.495 15.505 79.495 15 80 C15 80.66 15 81.32 15 82 C14.34 82 13.68 82 13 82 C12.67 81.01 12.34 80.02 12 79 C11.51660156 78.56816406 11.03320312 78.13632812 10.53515625 77.69140625 C8.36857835 75.30431151 8.09168136 73.07383234 7.4375 69.9375 C7.19257813 68.78765625 6.94765625 67.6378125 6.6953125 66.453125 C6.46585937 65.31359375 6.23640625 64.1740625 6 63 C5.79117187 61.98421875 5.58234375 60.9684375 5.3671875 59.921875 C4.89956113 57.61667457 4.44322708 55.30999526 4 53 C1.80835056 56.28747416 1.71320614 57.48494825 1.5859375 61.32421875 C1.54726563 62.35224609 1.50859375 63.38027344 1.46875 64.43945312 C1.4378125 65.51130859 1.406875 66.58316406 1.375 67.6875 C1.33632813 68.77095703 1.29765625 69.85441406 1.2578125 70.97070312 C1.16349491 73.64696467 1.07789995 76.32321843 1 79 C0.67 79 0.34 79 0 79 C0 52.93 0 26.86 0 0 Z M1 30 C2 32 2 32 2 32 Z M20 70 C20 70.66 20 71.32 20 72 C20.66 71.67 21.32 71.34 22 71 C21.34 70.67 20.68 70.34 20 70 Z " fill="#130001" transform="translate(378,857)"/>
<path d="M0 0 C2.72567761 1.3628388 2.90877185 3.11645429 3.85121155 5.88574219 C4.08078049 6.58473633 4.31034943 7.28373047 4.546875 8.00390625 C4.9182383 9.10351685 4.9182383 9.10351685 5.29710388 10.2253418 C5.83662551 11.82519104 6.3728069 13.4261696 6.90609741 15.02810669 C8.351017 19.36746363 9.82019817 23.69862631 11.28515625 28.03125 C11.58944046 28.9335585 11.89372467 29.835867 12.20722961 30.76551819 C15.4576883 40.39134944 18.81781848 49.97789563 22.1875 59.5625 C23.36526073 62.91642918 24.54225083 66.27062809 25.71875 69.625 C26.1422599 70.83234802 26.1422599 70.83234802 26.57432556 72.06408691 C29.14058025 79.38716781 31.66818042 86.72314943 34.1875 94.0625 C37.87260564 104.79727411 41.65002961 115.4968101 45.46307373 126.18658447 C48.40500958 134.43775724 51.28573243 142.70252102 53.99389648 151.03369141 C55.36991309 155.23224115 56.88757905 159.35150282 58.49438477 163.46704102 C60.91496683 169.66693831 62.76013402 175.28375252 63 182 C58.89654901 179.82184385 58.01867735 177.0284642 56.6673584 172.84362793 C56.41619263 172.01866821 56.16502686 171.1937085 55.90625 170.34375 C55.6328479 169.48624146 55.3594458 168.62873291 55.07775879 167.74523926 C54.20550975 165.00073661 53.35221274 162.2507828 52.5 159.5 C51.64584559 156.78544031 50.78780887 154.07213162 49.92919922 151.35897827 C49.37476532 149.60682863 48.82169247 147.8542477 48.27001953 146.10122681 C46.34373347 140.00232852 44.25869369 133.98424018 42 128 C38.73895944 119.01428605 35.62630984 110.00871161 32.86328125 100.85546875 C31.18227809 95.29522753 29.37558275 89.85638696 27.125 84.5 C25.41712074 80.30040136 24.10418652 76.04562048 22.875 71.6875 C20.6324064 63.79655945 18.00858207 56.05908398 15.3125 48.3125 C11.84816529 38.34924712 8.40355273 28.38094767 5.04867554 18.38021851 C4.60168766 17.04974364 4.15299325 15.71984081 3.70254517 14.39053345 C3.07594721 12.54048434 2.45579106 10.6882572 1.8359375 8.8359375 C1.48063965 7.77938965 1.1253418 6.7228418 0.75927734 5.63427734 C0 3 0 3 0 0 Z " fill="#52000C" transform="translate(133,162)"/>
<path d="M0 0 C0.99 0.495 0.99 0.495 2 1 C2 2.32 2 3.64 2 5 C2.99 5.33 3.98 5.66 5 6 C6.08225779 8.60429688 6.96236635 11.10542717 7.78515625 13.79296875 C8.17114235 15.00126846 8.17114235 15.00126846 8.56492615 16.23397827 C9.40837659 18.88182291 10.23521374 21.53456548 11.0625 24.1875 C11.6418489 26.01402887 12.22258731 27.84011757 12.8046875 29.66577148 C13.68812454 32.43716118 14.5706761 35.20879717 15.44876099 37.98188782 C18.05237944 46.20280738 20.75652556 54.3873608 23.5 62.5625 C23.88422119 63.71065186 24.26844238 64.85880371 24.66430664 66.04174805 C26.18963977 70.59907669 27.71571053 75.15612669 29.25 79.71044922 C31.20780757 85.53550043 33.13201736 91.36537421 34.91796875 97.24609375 C36.54610525 102.60083558 38.28200404 107.91325834 40.05078125 113.22265625 C40.58938855 114.84824242 41.12779845 116.473894 41.66601562 118.09960938 C42.49485898 120.60296875 43.32683232 123.10507169 44.16821289 125.60424805 C44.99285241 128.05730767 45.80422678 130.51441964 46.61328125 132.97265625 C46.99592888 134.09451073 46.99592888 134.09451073 47.38630676 135.23902893 C48.59167278 138.94133322 49.16865661 141.28686576 48 145 C44.52984268 136.25099166 41.40149309 127.43080101 38.46539307 118.48965454 C37.18551335 114.59459871 35.89340815 110.7036005 34.6015625 106.8125 C34.32194672 105.96992142 34.04233093 105.12734283 33.75424194 104.25923157 C29.93132333 92.75892692 26.02642609 81.28635148 22.125 69.8125 C21.76482788 68.75181305 21.40465576 67.6911261 21.03356934 66.59829712 C13.59910865 44.59713947 13.59910865 44.59713947 5.6640625 22.7734375 C5.32246094 21.86722656 4.98085938 20.96101563 4.62890625 20.02734375 C3.94376013 18.21717171 3.25069788 16.40998107 2.55078125 14.60546875 C0.63859337 9.48907417 -0.43433973 5.46668965 0 0 Z " fill="#540007" transform="translate(754,1185)"/>
<path d="M0 0 C2.91174913 1.45587457 3.10377504 3.68458099 4.10604858 6.62484741 C4.36753693 7.41638214 4.62902527 8.20791687 4.8984375 9.0234375 C5.17466949 9.83938385 5.45090149 10.6553302 5.73550415 11.4960022 C6.6223285 14.12003855 7.4989555 16.74734731 8.375 19.375 C9.24401236 21.96031178 10.11511036 24.54490972 10.98712158 27.12921143 C11.55017026 28.8003004 12.11102535 30.47213017 12.6696167 32.14471436 C14.4494318 37.45599167 16.35162055 42.69983547 18.45556641 47.89306641 C19.07963435 50.30818138 18.80804566 51.66866564 18 54 C15.62932044 50.44398066 14.42088265 46.76075942 13.06640625 42.74609375 C12.78780258 41.93060562 12.50919891 41.11511749 12.22215271 40.2749176 C11.63261989 38.54652652 11.04519436 36.81741545 10.4597168 35.08764648 C9.57357326 32.47020755 8.68094489 29.85505522 7.78710938 27.24023438 C0 4.40050726 0 4.40050726 0 0 Z " fill="#6D000F" transform="translate(133,162)"/>
<path d="M0 0 C1.66192383 -0.00386719 1.66192383 -0.00386719 3.35742188 -0.0078125 C4.51951172 -0.00007813 5.68160156 0.00765625 6.87890625 0.015625 C8.03712891 0.00789063 9.19535156 0.00015625 10.38867188 -0.0078125 C11.49791016 -0.00523438 12.60714844 -0.00265625 13.75 0 C15.27838501 0.00338379 15.27838501 0.00338379 16.83764648 0.00683594 C19.44140625 0.265625 19.44140625 0.265625 22.44140625 2.265625 C16.57569395 3.49333223 11.27161399 2.99414843 5.33203125 2.32421875 C2.24154436 1.98615331 2.24154436 1.98615331 -0.55859375 4.265625 C-3.86592275 4.8102723 -7.21209675 4.86951034 -10.55859375 5.015625 C-11.93144531 5.09876953 -11.93144531 5.09876953 -13.33203125 5.18359375 C-14.21117187 5.22613281 -15.0903125 5.26867188 -15.99609375 5.3125 C-16.79917969 5.35213867 -17.60226562 5.39177734 -18.4296875 5.43261719 C-20.55859375 5.265625 -20.55859375 5.265625 -23.55859375 3.265625 C-22.42679687 3.21664063 -21.295 3.16765625 -20.12890625 3.1171875 C-18.64711036 3.04215986 -17.16534075 2.96661203 -15.68359375 2.890625 C-14.93722656 2.8596875 -14.19085938 2.82875 -13.421875 2.796875 C-8.04370812 2.50616328 -5.35997958 0.01187995 0 0 Z " fill="#850208" transform="translate(343.55859375,1385.734375)"/>
<path d="M0 0 C2.25023716 3.37535573 3.39141129 6.77177304 4.63671875 10.58984375 C4.88041702 11.33077774 5.1241153 12.07171173 5.37519836 12.83509827 C5.88780117 14.40023644 6.39784892 15.96621342 6.90551758 17.53295898 C7.6846319 19.92868079 8.47962933 22.31874868 9.27539062 24.70898438 C9.77181869 26.23144989 10.26729363 27.75422659 10.76171875 29.27734375 C11.0012175 29.99099594 11.24071625 30.70464813 11.48747253 31.43992615 C13.44391012 37.5761536 13.44391012 37.5761536 12 41 C8.45661485 32.43114071 5.49713676 23.68729504 2.625 14.875 C2.25503906 13.7600415 1.88507812 12.64508301 1.50390625 11.49633789 C1.16488281 10.44309326 0.82585938 9.38984863 0.4765625 8.3046875 C0.0137085 6.8813208 0.0137085 6.8813208 -0.45849609 5.42919922 C-1 3 -1 3 0 0 Z " fill="#67000A" transform="translate(790,1289)"/>
<path d="M0 0 C0.33 0 0.66 0 1 0 C1 7.92 1 15.84 1 24 C-0.6878879 20.6242242 -1.89882737 17.50816089 -3.0625 13.9375 C-3.40410156 12.89464844 -3.74570312 11.85179687 -4.09765625 10.77734375 C-4.39542969 9.86082031 -4.69320312 8.94429687 -5 8 C-5.33 7.01 -5.66 6.02 -6 5 C-3.525 5.495 -3.525 5.495 -1 6 C-0.67 4.02 -0.34 2.04 0 0 Z " fill="#78000C" transform="translate(574,657)"/>
<path d="M0 0 C2.32217616 3.48326424 3.71673124 7.11024921 5.1875 11 C5.47302734 11.72445313 5.75855469 12.44890625 6.05273438 13.1953125 C8.11864075 18.64407774 8.11864075 18.64407774 7 22 C6.34 22 5.68 22 5 22 C4.731875 21.278125 4.46375 20.55625 4.1875 19.8125 C3.08689377 16.98381445 3.08689377 16.98381445 1.4375 14.5625 C-0.1962461 11.65016999 -0.70554258 9.31264599 -1 6 C-0.67 5.34 -0.34 4.68 0 4 C0 2.68 0 1.36 0 0 Z " fill="#72010F" transform="translate(195,337)"/>
<path d="M0 0 C3.55226546 3.55226546 5.06641442 7.37822019 5.5625 12.3125 C5.706875 13.529375 5.85125 14.74625 6 16 C6.66 16.33 7.32 16.66 8 17 C8.33333333 19.33333333 8.66666667 21.66666667 9 24 C9.66 24.33 10.32 24.66 11 25 C11.625 27.5625 11.625 27.5625 12 30 C11.34 30.33 10.68 30.66 10 31 C8.56975258 27.06948228 7.14576919 23.13676931 5.72753906 19.2019043 C5.24422865 17.86371832 4.75921402 16.52614657 4.27246094 15.18920898 C3.57297655 13.26705444 2.87965723 11.34277196 2.1875 9.41796875 C1.76855469 8.26063232 1.34960938 7.1032959 0.91796875 5.91088867 C0 3 0 3 0 0 Z " fill="#8B010D" transform="translate(587,720)"/>
<path d="M0 0 C6.6 0.33 13.2 0.66 20 1 C20 1.33 20 1.66 20 2 C16.07009 2.9142755 12.34462093 3.19482845 8.3125 3.25 C7.17425781 3.27578125 6.03601563 3.3015625 4.86328125 3.328125 C3.91839844 3.21984375 2.97351563 3.1115625 2 3 C1.34 2.01 0.68 1.02 0 0 Z " fill="#D60410" transform="translate(606,1388)"/>
<path d="M0 0 C0.99 1.485 0.99 1.485 2 3 C2.556875 3.804375 3.11375 4.60875 3.6875 5.4375 C5 8 5 8 4.6875 10.3125 C4.460625 10.869375 4.23375 11.42625 4 12 C2 11.0625 2 11.0625 0 9 C-0.36475845 5.97465051 -0.22893297 3.03336186 0 0 Z " fill="#3E020A" transform="translate(378,857)"/>
<path d="M0 0 C2.45823172 3.68734758 3.01242616 6.69699971 4 11 C3.01 11.33 2.02 11.66 1 12 C0.63597631 10.56496445 0.28413409 9.12683494 -0.0625 7.6875 C-0.25972656 6.88699219 -0.45695313 6.08648437 -0.66015625 5.26171875 C-1 3 -1 3 0 0 Z " fill="#62000C" transform="translate(157,229)"/>
<path d="M0 0 C2.50024828 2.96172661 3.57026926 5.32885806 4.3125 9.125 C4.58513672 10.42824219 4.58513672 10.42824219 4.86328125 11.7578125 C4.93095703 12.86769531 4.93095703 12.86769531 5 14 C4.34 14.66 3.68 15.32 3 16 C1.75799248 10.6822785 0.69165788 5.41798672 0 0 Z " fill="#96010F" transform="translate(195,349)"/>
<path d="M0 0 C1.60379341 -0.05416188 3.20811406 -0.09286638 4.8125 -0.125 C5.70582031 -0.14820313 6.59914062 -0.17140625 7.51953125 -0.1953125 C10 0 10 0 13 2 C8.05632546 3.20577428 4.79137588 2.6290678 0 1 C0 0.67 0 0.34 0 0 Z " fill="#980209" transform="translate(234,1394)"/>
<path d="M0 0 C0.66 0 1.32 0 2 0 C2.36256858 1.4562672 2.71479793 2.91511185 3.0625 4.375 C3.35833984 5.59316406 3.35833984 5.59316406 3.66015625 6.8359375 C4 9 4 9 3 11 C0 4.5 0 4.5 0 0 Z " fill="#3D000A" transform="translate(179,297)"/>
<path d="M0 0 C1.95216435 3.90432869 2.50639991 6.72213252 3 11 C2.01 10.67 1.02 10.34 0 10 C0 6.7 0 3.4 0 0 Z " fill="#92000A" transform="translate(748,1156)"/>
<path d="M0 0 C0.33 0 0.66 0 1 0 C1 3.3 1 6.6 1 10 C0.01 9.67 -0.98 9.34 -2 9 C-1.34 6.03 -0.68 3.06 0 0 Z " fill="#870005" transform="translate(574,657)"/>
<path d="M0 0 C0.33 0 0.66 0 1 0 C1 2.97 1 5.94 1 9 C0.67 9 0.34 9 0 9 C0 6.03 0 3.06 0 0 Z " fill="#270004" transform="translate(830,128)"/>
<path d="M0 0 C0.33 0 0.66 0 1 0 C1 2.31 1 4.62 1 7 C0.67 7 0.34 7 0 7 C0 4.69 0 2.38 0 0 Z " fill="#CC0001" transform="translate(575,133)"/>
<path d="M0 0 C0.66 0.66 1.32 1.32 2 2 C1.01 1.67 0.02 1.34 -1 1 C-0.67 0.67 -0.34 0.34 0 0 Z " fill="#000000" transform="translate(405,939)"/>
<path d="M0 0 C3 1 3 1 3 1 Z " fill="#0D0000" transform="translate(819,1408)"/>
<path d="" fill="#FF0206" transform="translate(0,0)"/>
<path d="M0 0 C0.33 0.66 0.66 1.32 1 2 C0.34 1.67 -0.32 1.34 -1 1 C-0.67 0.67 -0.34 0.34 0 0 Z " fill="#D00106" transform="translate(431,1003)"/>
<path d="M0 0 C0.33 0.66 0.66 1.32 1 2 C0.34 1.67 -0.32 1.34 -1 1 C-0.67 0.67 -0.34 0.34 0 0 Z " fill="#CA0208" transform="translate(409,941)"/>
<path d="M0 0 C0.99 0.495 0.99 0.495 2 1 C1.01 1.495 1.01 1.495 0 2 C0 1.34 0 0.68 0 0 Z " fill="#000000" transform="translate(401,932)"/>
<path d="M0 0 C2 1 2 1 2 1 Z " fill="#010102" transform="translate(950,1527)"/>
<path d="" fill="#6E000B" transform="translate(0,0)"/>
<path d="M0 0 C2 1 2 1 2 1 Z " fill="#000104" transform="translate(599,1389)"/>
<path d="" fill="#6C0D06" transform="translate(0,0)"/>
<path d="" fill="#000000" transform="translate(0,0)"/>
<path d="" fill="#FF0105" transform="translate(0,0)"/>
<path d="" fill="#FD0308" transform="translate(0,0)"/>
<path d="" fill="#FD0308" transform="translate(0,0)"/>
<path d="" fill="#FD0401" transform="translate(0,0)"/>
<path d="" fill="#E90603" transform="translate(0,0)"/>
<path d="" fill="#F10502" transform="translate(0,0)"/>
<path d="" fill="#FC0202" transform="translate(0,0)"/>
<path d="" fill="#FF0003" transform="translate(0,0)"/>
<path d="" fill="#FF0203" transform="translate(0,0)"/>
<path d="" fill="#FD040B" transform="translate(0,0)"/>
<path d="" fill="#F90604" transform="translate(0,0)"/>
<path d="" fill="#FD0400" transform="translate(0,0)"/>
<path d="" fill="#E70603" transform="translate(0,0)"/>
<path d="" fill="#F00503" transform="translate(0,0)"/>
<path d="" fill="#FD0202" transform="translate(0,0)"/>
<path d="" fill="#FF0204" transform="translate(0,0)"/>
<path d="" fill="#FE0401" transform="translate(0,0)"/>
<path d="" fill="#F90805" transform="translate(0,0)"/>
<path d="" fill="#AF010C" transform="translate(0,0)"/>
<path d="" fill="#C80703" transform="translate(0,0)"/>
<path d="" fill="#F80404" transform="translate(0,0)"/>
<path d="" fill="#E30708" transform="translate(0,0)"/>
<path d="" fill="#F60002" transform="translate(0,0)"/>
<path d="" fill="#FF0304" transform="translate(0,0)"/>
<path d="" fill="#FD0500" transform="translate(0,0)"/>
<path d="" fill="#E70503" transform="translate(0,0)"/>
<path d="" fill="#EF0602" transform="translate(0,0)"/>
<path d="" fill="#FF0002" transform="translate(0,0)"/>
<path d="" fill="#FF0102" transform="translate(0,0)"/>
<path d="" fill="#FE0409" transform="translate(0,0)"/>
<path d="" fill="#FA0603" transform="translate(0,0)"/>
<path d="" fill="#FE0300" transform="translate(0,0)"/>
<path d="" fill="#FC0300" transform="translate(0,0)"/>
<path d="" fill="#FF0004" transform="translate(0,0)"/>
<path d="" fill="#FF0206" transform="translate(0,0)"/>
<path d="" fill="#FF0102" transform="translate(0,0)"/>
<path d="" fill="#F30400" transform="translate(0,0)"/>
<path d="" fill="#F80201" transform="translate(0,0)"/>
<path d="M0 0 C2 1 2 1 2 1 Z " fill="#010000" transform="translate(555,615)"/>
<path d="" fill="#0D0000" transform="translate(0,0)"/>
<path d="M0 0 C2 1 2 1 2 1 Z " fill="#010000" transform="translate(554,613)"/>
<path d="" fill="#0B0000" transform="translate(0,0)"/>
<path d="" fill="#0E0000" transform="translate(0,0)"/>
<path d="M0 0 C2 1 2 1 2 1 Z " fill="#010102" transform="translate(358,123)"/>
<path d="M0 0 C2 1 2 1 2 1 Z " fill="#640510" transform="translate(316,123)"/>
<path d="" fill="#010201" transform="translate(0,0)"/>
<path d="" fill="#010201" transform="translate(0,0)"/>
<path d="" fill="#000100" transform="translate(0,0)"/>
<path d="" fill="#D1000F" transform="translate(0,0)"/>
<path d="" fill="#080000" transform="translate(0,0)"/>
<path d="" fill="#010000" transform="translate(0,0)"/>
<path d="" fill="#000000" transform="translate(0,0)"/>
<path d="" fill="#000103" transform="translate(0,0)"/>
<path d="" fill="#DD220B" transform="translate(0,0)"/>
<path d="" fill="#000300" transform="translate(0,0)"/>
<path d="" fill="#030100" transform="translate(0,0)"/>
<path d="" fill="#4F0303" transform="translate(0,0)"/>
<path d="" fill="#040000" transform="translate(0,0)"/>
<path d="" fill="#420000" transform="translate(0,0)"/>
<path d="" fill="#430005" transform="translate(0,0)"/>
<path d="" fill="#AE0002" transform="translate(0,0)"/>
<path d="" fill="#000208" transform="translate(0,0)"/>
<path d="" fill="#E80800" transform="translate(0,0)"/>
<path d="" fill="#FF0005" transform="translate(0,0)"/>
<path d="" fill="#0F000B" transform="translate(0,0)"/>
<path d="" fill="#FF0406" transform="translate(0,0)"/>
<path d="" fill="#10000B" transform="translate(0,0)"/>
<path d="" fill="#120005" transform="translate(0,0)"/>
<path d="" fill="#FF0109" transform="translate(0,0)"/>
<path d="" fill="#08000B" transform="translate(0,0)"/>
<path d="" fill="#0E000B" transform="translate(0,0)"/>
<path d="" fill="#0F000B" transform="translate(0,0)"/>
<path d="" fill="#F20B05" transform="translate(0,0)"/>
<path d="" fill="#0E0006" transform="translate(0,0)"/>
<path d="" fill="#FF0209" transform="translate(0,0)"/>
<path d="" fill="#09000B" transform="translate(0,0)"/>
<path d="" fill="#0F000B" transform="translate(0,0)"/>
<path d="" fill="#0E0005" transform="translate(0,0)"/>
<path d="" fill="#F40D05" transform="translate(0,0)"/>
<path d="" fill="#D10205" transform="translate(0,0)"/>
<path d="" fill="#F70600" transform="translate(0,0)"/>
<path d="" fill="#000202" transform="translate(0,0)"/>
<path d="" fill="#FF0403" transform="translate(0,0)"/>
<path d="" fill="#06000A" transform="translate(0,0)"/>
<path d="" fill="#0B0006" transform="translate(0,0)"/>
<path d="" fill="#F30D05" transform="translate(0,0)"/>
<path d="" fill="#EA0801" transform="translate(0,0)"/>
<path d="" fill="#F80500" transform="translate(0,0)"/>
<path d="" fill="#05000A" transform="translate(0,0)"/>
<path d="" fill="#FF0503" transform="translate(0,0)"/>
<path d="" fill="#0E000B" transform="translate(0,0)"/>
<path d="" fill="#F40D04" transform="translate(0,0)"/>
<path d="" fill="#110005" transform="translate(0,0)"/>
<path d="" fill="#FF0004" transform="translate(0,0)"/>
<path d="" fill="#FF0104" transform="translate(0,0)"/>
<path d="" fill="#FF0000" transform="translate(0,0)"/>
<path d="" fill="#0F000A" transform="translate(0,0)"/>
<path d="" fill="#1E0009" transform="translate(0,0)"/>
<path d="" fill="#F60302" transform="translate(0,0)"/>
<path d="" fill="#290005" transform="translate(0,0)"/>
<path d="" fill="#3C0000" transform="translate(0,0)"/>
<path d="" fill="#FF0005" transform="translate(0,0)"/>
<path d="" fill="#FF0007" transform="translate(0,0)"/>
<path d="" fill="#050004" transform="translate(0,0)"/>
<path d="" fill="#0C0009" transform="translate(0,0)"/>
<path d="" fill="#000000" transform="translate(0,0)"/>
<path d="" fill="#000000" transform="translate(0,0)"/>
<path d="" fill="#000000" transform="translate(0,0)"/>
<path d="" fill="#000000" transform="translate(0,0)"/>
<path d="" fill="#000000" transform="translate(0,0)"/>
<path d="" fill="#000000" transform="translate(0,0)"/>
<path d="" fill="#000000" transform="translate(0,0)"/>
<path d="" fill="#000100" transform="translate(0,0)"/>
<path d="" fill="#000000" transform="translate(0,0)"/>
<path d="" fill="#A2060B" transform="translate(0,0)"/>
<path d="" fill="#000000" transform="translate(0,0)"/>
<path d="" fill="#000000" transform="translate(0,0)"/>
<path d="" fill="#060003" transform="translate(0,0)"/>
<path d="" fill="#000000" transform="translate(0,0)"/>
<path d="" fill="#000300" transform="translate(0,0)"/>
<path d="" fill="#FF0000" transform="translate(0,0)"/>
<path d="" fill="#080008" transform="translate(0,0)"/>
<path d="" fill="#000000" transform="translate(0,0)"/>
<path d="" fill="#0E0003" transform="translate(0,0)"/>
<path d="" fill="#050003" transform="translate(0,0)"/>
<path d="" fill="#000200" transform="translate(0,0)"/>
<path d="" fill="#020002" transform="translate(0,0)"/>
<path d="" fill="#000302" transform="translate(0,0)"/>
<path d="" fill="#030000" transform="translate(0,0)"/>
<path d="" fill="#090000" transform="translate(0,0)"/>
<path d="" fill="#0C0000" transform="translate(0,0)"/>
<path d="" fill="#0B0001" transform="translate(0,0)"/>
<path d="" fill="#0C0000" transform="translate(0,0)"/>
<path d="" fill="#010000" transform="translate(0,0)"/>
<path d="" fill="#000000" transform="translate(0,0)"/>
<path d="" fill="#000000" transform="translate(0,0)"/>
<path d="" fill="#CB0005" transform="translate(0,0)"/>
<path d="" fill="#BC0000" transform="translate(0,0)"/>
<path d="" fill="#1D0002" transform="translate(0,0)"/>
<path d="" fill="#030402" transform="translate(0,0)"/>
<path d="" fill="#3B0308" transform="translate(0,0)"/>
<path d="" fill="#000100" transform="translate(0,0)"/>
</svg>
