<?xml version="1.0" encoding="UTF-8"?>
<svg version="1.1" xmlns="http://www.w3.org/2000/svg" width="2560" height="726">
<path d="M0 0 C0.81752747 -0.00067474 1.63505493 -0.00134949 2.47735596 -0.00204468 C16.2812067 0.01597338 29.70220463 0.79863755 43.3125 3.25 C44.23530762 3.41097168 45.15811523 3.57194336 46.10888672 3.73779297 C90.75904143 11.77250534 132.40158622 32.24838727 166.3125 62.25 C167.17101563 62.99765625 168.02953125 63.7453125 168.9140625 64.515625 C179.28972129 73.67255562 188.78952432 83.33514128 197.3125 94.25 C198.47845703 95.69052734 198.47845703 95.69052734 199.66796875 97.16015625 C300.49618006 223.9568417 252.3125 458.50066282 252.3125 578.25 C-171.4075 578.25 -595.1275 578.25 -1031.6875 578.25 C-1031.6875 523.47 -1031.6875 468.69 -1031.6875 412.25 C-933.6775 412.25 -835.6675 412.25 -734.6875 412.25 C-732.0816679 325.0868388 -732.0816679 325.0868388 -769.6875 250.25 C-794.99723824 226.48825798 -828.52664642 219.02845544 -862.1875 219 C-863.27214035 218.99898788 -863.27214035 218.99898788 -864.37869263 218.99795532 C-892.63261378 219.03945558 -920.07297017 224.12755921 -947.375 231.125 C-948.55989014 231.42817139 -949.74478027 231.73134277 -950.96557617 232.04370117 C-962.65855675 235.11705409 -974.09528242 238.72193378 -985.6875 242.25 C-985.6875 191.76 -985.6875 141.27 -985.6875 89.25 C-949.69051963 77.25100654 -949.69051963 77.25100654 -931.6875 73.25 C-930.72166992 73.03005371 -929.75583984 72.81010742 -928.76074219 72.58349609 C-904.21557604 67.05738749 -878.85306157 63.75798233 -853.6875 63.25 C-852.39070312 63.21003906 -851.09390625 63.17007813 -849.7578125 63.12890625 C-802.15089819 62.32760175 -752.7497054 71.36308904 -710.61669922 94.20507812 C-708.52602974 95.33745795 -706.42135282 96.44128366 -704.31640625 97.546875 C-689.06342674 105.67229399 -675.2144782 115.43268145 -662.26147461 126.86474609 C-661.11993075 127.86941801 -659.97136463 128.866129 -658.81860352 129.85791016 C-647.47110552 139.65456961 -636.78722186 150.32286456 -627.6875 162.25 C-626.77117303 163.41432992 -625.85448232 164.57837364 -624.9375 165.7421875 C-578.51621806 225.39387933 -568.10084698 289.96861851 -568.5 363.4375 C-568.561875 379.545625 -568.62375 395.65375 -568.6875 412.25 C-522.4875 412.25 -476.2875 412.25 -428.6875 412.25 C-431.3275 404.33 -433.9675 396.41 -436.6875 388.25 C-437.89290012 383.89256147 -439.03842173 379.64893999 -440 375.25 C-440.23799316 374.17065186 -440.47598633 373.09130371 -440.72119141 371.97924805 C-453.037968 314.19001282 -445.54454173 252.24613336 -413.26635742 202.03222656 C-391.35801601 168.78435712 -360.75844777 142.96670165 -324.6875 126.25 C-324.07438965 125.95818848 -323.4612793 125.66637695 -322.82958984 125.36572266 C-295.14537531 112.2290621 -265.07075723 105.30509661 -234.6875 102.25 C-233.76146973 102.15356201 -232.83543945 102.05712402 -231.88134766 101.95776367 C-223.8907576 101.19995501 -215.95933139 101.13307213 -207.9375 101.1875 C-206.65617188 101.19201172 -205.37484375 101.19652344 -204.0546875 101.20117188 C-200.93224069 101.2128228 -197.80989682 101.22917975 -194.6875 101.25 C-194.39866943 100.48502197 -194.10983887 99.72004395 -193.81225586 98.93188477 C-189.86747763 89.5258963 -181.07125175 81.26949166 -174.1328125 73.90625 C-171.68003967 71.30616226 -171.68003967 71.30616226 -169.58203125 68.6015625 C-167.32326418 65.79789698 -164.84619052 63.63089159 -162.109375 61.30859375 C-160.3896815 59.84685427 -158.69396829 58.35669298 -157.015625 56.84765625 C-114.4435073 18.94019684 -56.42395318 0.04203618 0 0 Z M-49.6875 165.25 C-46.77356183 169.15443416 -43.85200295 173.05081487 -40.86328125 176.8984375 C-23.96968939 198.78085881 -10.58833164 223.06197516 -1.6875 249.25 C-1.41067383 250.06259277 -1.13384766 250.87518555 -0.84863281 251.71240234 C2.43945369 261.55881338 4.95666698 271.52487386 7.0625 281.6875 C7.26125732 282.62625977 7.46001465 283.56501953 7.66479492 284.53222656 C11.16141953 302.34357968 11.62449018 320.4278005 11.7265625 338.51953125 C11.74533533 340.66428826 11.76491293 342.80903836 11.7852478 344.95378113 C11.83593055 350.52163562 11.87589205 356.0895139 11.91339111 361.6574707 C11.96098482 368.37938869 12.022301 375.10119467 12.08123779 381.82302094 C12.16866838 391.96530046 12.23899009 402.10756712 12.3125 412.25 C41.0225 412.25 69.7325 412.25 99.3125 412.25 C99.42913998 381.73927842 99.42913998 381.73927842 99.5078125 351.22851562 C99.53149763 338.77670664 99.55926047 326.32500635 99.61425781 313.87329102 C99.65430234 304.80260598 99.67997449 295.73200959 99.68885398 286.66123861 C99.69403908 281.86454786 99.70610422 277.06811054 99.73542023 272.27150154 C99.76286869 267.74313529 99.77088654 263.2151233 99.76493073 258.68668175 C99.76601797 257.0377064 99.77379469 255.38871736 99.7893219 253.73981476 C100.03816705 225.91421203 89.70213056 201.04101524 70.27734375 181.15234375 C51.93049044 162.94693743 26.27060272 152.35147079 0.4375 152 C-17.46893302 152.17781959 -33.94289995 156.72167497 -49.6875 165.25 Z M-273.6875 272.25 C-274.96560547 273.40822266 -274.96560547 273.40822266 -276.26953125 274.58984375 C-288.70121056 286.38782427 -296.35180174 301.49682888 -299.6875 318.25 C-299.914375 319.384375 -300.14125 320.51875 -300.375 321.6875 C-302.35173781 344.22231099 -296.66643554 365.75458681 -282.1484375 383.41796875 C-267.77213064 400.13167296 -249.50674118 409.5733623 -227.6875 412.25 C-224.75947539 412.3805242 -221.83702124 412.37689013 -218.90649414 412.36352539 C-218.05691132 412.36367142 -217.20732849 412.36381744 -216.33200073 412.3639679 C-213.54552589 412.36327554 -210.7591193 412.35551507 -207.97265625 412.34765625 C-206.03209978 412.34578966 -204.09154283 412.34436689 -202.15098572 412.34336853 C-197.05962813 412.33956233 -191.96829937 412.32974832 -186.87695312 412.31866455 C-181.67513417 412.30840956 -176.47331054 412.30386217 -171.27148438 412.29882812 C-161.0768103 412.28812427 -150.88215755 412.27107075 -140.6875 412.25 C-140.59431501 400.53109006 -140.52349088 388.81227005 -140.48025131 377.09306335 C-140.45948562 371.64979856 -140.43137213 366.20678953 -140.38574219 360.76367188 C-140.3418879 355.49868296 -140.31828033 350.23393816 -140.30799103 344.96878052 C-140.30067003 342.97238326 -140.28637666 340.9759975 -140.26457977 338.97970581 C-139.99628255 313.35978925 -146.57483564 293.36324768 -164.3125 274.125 C-181.56867424 257.75550665 -202.54722137 251.5150608 -225.8828125 251.9453125 C-243.74359233 252.64767011 -260.57897949 260.16523491 -273.6875 272.25 Z " fill="#212B37" transform="translate(1031.6875,81.75)"/>
<path d="M0 0 C54.45 0 108.9 0 165 0 C165 163.02 165 326.04 165 494 C491.04 494 817.08 494 1153 494 C1153 570.23 1153 646.46 1153 725 C1098.55 725 1044.1 725 988 725 C988 703.55 988 682.1 988 660 C661.96 660 335.92 660 0 660 C0 442.2 0 224.4 0 0 Z " fill="#212C37" transform="translate(1407,0)"/>
<path d="M0 0 C0.69351563 0.60328125 1.38703125 1.2065625 2.1015625 1.828125 C2.89820312 2.49328125 3.69484375 3.1584375 4.515625 3.84375 C24.97928654 21.45643702 37.63712201 45.86037351 40.1015625 72.828125 C41.53550486 100.21005103 34.6916693 126.44159227 17.1015625 147.828125 C16.30234375 148.80265625 15.503125 149.7771875 14.6796875 150.78125 C-2.55809824 171.01662881 -27.14450359 182.64810067 -53.3515625 185.55078125 C-81.51672992 187.75312364 -108.1563018 179.91559972 -129.8984375 161.828125 C-130.78273438 161.0959375 -131.66703125 160.36375 -132.578125 159.609375 C-153.83780364 141.25755514 -164.9525883 115.38004082 -167.05810547 87.73144531 C-168.7164965 59.25666495 -158.31251542 33.13513468 -139.8984375 11.828125 C-139.24230469 11.06886719 -138.58617188 10.30960938 -137.91015625 9.52734375 C-103.40304068 -27.34428509 -39.05135466 -32.46966567 0 0 Z " fill="#00CC99" transform="translate(2190.8984375,165.171875)"/>
<path d="M0 0 C1.77174921 1.5377942 3.52167766 3.10105487 5.25 4.6875 C6.17554687 5.53183594 7.10109375 6.37617188 8.0546875 7.24609375 C26.51569151 24.86331225 38.7594232 49.59071211 39.453125 75.3125 C39.82065181 105.20858232 31.76548377 132.3606847 10.92919922 154.48144531 C-8.84725085 174.61393622 -35.50551798 185.22057127 -63.5 186 C-88.93560069 185.54014733 -113.95960427 177.15581699 -132.75 159.6875 C-133.23275391 159.25099121 -133.71550781 158.81448242 -134.21289062 158.36474609 C-152.16685053 142.02986922 -165.50289011 118.2306783 -166.92700195 93.62988281 C-167.5226293 62.14468892 -162.22777603 38.3382682 -141.75 13.6875 C-140.986875 12.676875 -140.22375 11.66625 -139.4375 10.625 C-104.16819252 -27.92517329 -40.72609476 -32.34980577 0 0 Z " fill="#0099FF" transform="translate(2520.75,165.3125)"/>
<path d="M0 0 C0.73347656 0.63035156 1.46695312 1.26070312 2.22265625 1.91015625 C2.88394531 2.42707031 3.54523438 2.94398438 4.2265625 3.4765625 C22.51576924 18.21877157 34.4326449 42.86085792 37.22265625 65.91015625 C37.42375 67.54791016 37.42375 67.54791016 37.62890625 69.21875 C40.2230086 96.60421682 32.7371071 123.25214664 15.76953125 144.9296875 C-3.92427679 167.97627574 -28.61931124 180.80142534 -58.77734375 183.91015625 C-85.84188952 186.02321704 -112.66164897 176.65063001 -133.25292969 159.23974609 C-153.30218948 141.75283565 -166.96446577 116.77938314 -168.9987793 89.99462891 C-170.15297849 60.16264042 -163.14475041 34.17511422 -143.15234375 11.53515625 C-141.70267579 9.98533851 -140.24501455 8.44293629 -138.77734375 6.91015625 C-138.19339844 6.27464844 -137.60945313 5.63914063 -137.0078125 4.984375 C-101.91600496 -32.0798058 -37.92629749 -32.00609495 0 0 Z " fill="#00D357" transform="translate(1863.77734375,167.08984375)"/>
</svg>
